<svg width="41" height="40" viewBox="0 0 41 40" fill="none" xmlns="http://www.w3.org/2000/svg">
<path d="M28.5417 2.58579C28.1667 2.21071 27.6579 2 27.1275 2H13.8725C13.3421 2 12.8333 2.21071 12.4583 2.58579L3.08579 11.9583C2.71071 12.3333 2.5 12.8421 2.5 13.3725V26.6275C2.5 27.1579 2.71071 27.6667 3.08579 28.0417L12.4583 37.4142C12.8333 37.7893 13.3421 38 13.8725 38H27.1275C27.6579 38 28.1667 37.7893 28.5417 37.4142L37.9142 28.0417C38.2893 27.6667 38.5 27.1579 38.5 26.6275V13.3725C38.5 12.8421 38.2893 12.3333 37.9142 11.9583L28.5417 2.58579Z" fill="#E1E1E1" fill-opacity="0.05" stroke="#E1E1E1" stroke-miterlimit="10"/>
</svg>
