<svg width="41" height="40" viewBox="0 0 41 40" fill="none" xmlns="http://www.w3.org/2000/svg">
<path d="M22.682 7.17922L22.6821 7.17914C23.5157 6.32914 24.505 5.65538 25.5932 5.19587C26.6813 4.73638 27.8473 4.5 29.0246 4.5C30.2019 4.5 31.3678 4.73638 32.456 5.19587C33.5441 5.65538 34.5334 6.32914 35.3671 7.17914L35.3673 7.1793C36.2013 8.02892 36.8634 9.03819 37.3154 10.1497C37.7673 11.2612 38 12.4529 38 13.6567C38 14.8604 37.7673 16.0521 37.3154 17.1636C36.8634 18.2751 36.2013 19.2844 35.3673 20.134L35.3672 20.1341L21.5702 34.195C20.9822 34.7942 20.0169 34.7942 19.4289 34.195L5.6319 20.1341C3.94778 18.4178 3 16.0879 3 13.6567C3 11.2254 3.94778 8.89555 5.6319 7.17922C7.31571 5.46321 9.5974 4.50094 11.9745 4.50094C14.3516 4.50094 16.6333 5.46321 18.3171 7.17922L20.1427 9.0397C20.2367 9.13553 20.3653 9.18952 20.4995 9.18952C20.6338 9.18952 20.7624 9.13553 20.8564 9.0397L22.682 7.17922Z" fill="#E1E1E1" fill-opacity="0.05" stroke="#E1E1E1" stroke-linecap="round" stroke-linejoin="round"/>
</svg>
