<svg width="25" height="24" viewBox="0 0 25 24" fill="none" xmlns="http://www.w3.org/2000/svg">
<path d="M4.5 15.7059H20.5V19H4.5V15.7059ZM4.5 15.7059H20.5V10.4067C20.5 10.4035 20.4974 10.4009 20.4941 10.4009H4.50587C4.50263 10.4009 4.5 10.4035 4.5 10.4067V15.7059ZM15.9676 5C16.9366 5 17.722 5.7835 17.722 6.75L17.716 6.613L17.7521 6.60333C19.2897 7.12298 20.4117 8.52702 20.495 10.2006L20.4992 10.3893L20.5 10.395C20.5 10.3982 20.4974 10.4009 20.4941 10.4009H4.53964C4.5364 10.4009 4.53378 10.3982 4.53378 10.395C4.53378 10.3924 4.53547 10.3901 4.53794 10.3894L12.0789 8.10776L14.374 7.48283C14.2708 7.25991 14.2132 7.01166 14.2132 6.75C14.2132 5.7835 14.9987 5 15.9676 5ZM15.9676 8.5C16.9366 8.5 17.722 7.7165 17.722 6.75C17.722 5.7835 16.9366 5 15.9676 5C14.9987 5 14.2132 5.7835 14.2132 6.75C14.2132 7.7165 14.9987 8.5 15.9676 8.5Z" stroke="white" stroke-linejoin="round"/>
</svg>
