<svg width="100" height="100" viewBox="0 0 100 100" fill="none" xmlns="http://www.w3.org/2000/svg">
<path d="M49.6021 12.3322C49.6581 12.348 49.7126 12.3678 49.7685 12.385C49.7788 12.4179 49.798 12.4509 49.826 12.4813C50.6625 13.4171 50.8053 14.6023 50.3753 15.7136C50.038 16.5887 49.6595 17.3832 50.0734 18.2939C50.7493 19.7827 52.87 20.2618 54.2794 19.2851C55.8463 18.1989 55.649 16.1584 54.6255 14.828C54.001 14.0163 53.1469 13.4078 52.2294 12.8786C51.5122 12.4641 50.4607 11.7131 49.5712 12.1144C49.4652 12.1619 49.5005 12.3018 49.6021 12.3308V12.3322ZM51.1897 18.616C51.253 18.1659 51.1705 17.7092 51.3414 17.2658C51.549 16.7273 52.0438 16.3471 52.7036 16.4752C53.9922 16.7246 54.0482 17.9415 53.6623 18.8469C53.3913 19.0014 53.057 19.099 52.6506 19.1202C52.0895 19.1492 51.5652 18.9525 51.1882 18.6147L51.1897 18.616ZM51.2545 15.4655C51.5122 14.5495 51.3296 13.6217 50.8186 12.8363C51.2839 13.0845 51.7272 13.3748 52.1602 13.6573C52.8847 14.1298 53.5872 14.6789 54.0629 15.3665C54.6196 16.1742 54.7816 17.3766 54.3074 18.2029C54.568 17.279 54.1071 16.2284 52.9274 16.0053C51.5549 15.7453 50.7773 16.9569 50.77 18.0564C50.7272 17.964 50.6919 17.8663 50.6669 17.766C50.4651 16.9596 51.0424 16.2204 51.2545 15.4668V15.4655Z" fill="#01205F"/>
<path d="M14.9967 78.8841C16.7622 82.4698 20.6667 83.6229 24.3027 84.5603C28.6332 85.6745 33.0746 86.3229 37.5233 86.7571C42.1704 87.21 46.838 87.4501 51.4997 87.6974C56.2139 87.9461 60.9428 88.1215 65.6614 87.8958C73.0414 87.5435 82.2145 86.2093 85.3107 78.506C86.6326 75.2179 86.0431 71.6639 83.6298 69.03C81.0764 66.2451 77.1647 64.7887 73.4411 64.366C73.6396 61.262 73.8657 58.1349 73.7213 55.0381C74.6668 54.6916 75.4488 53.9209 75.6589 52.903C75.9828 51.3316 74.8127 49.8349 73.304 49.4856C73.4309 49.106 73.3113 48.6675 73.0107 48.3498C72.5482 47.8566 71.8522 47.8825 71.2307 48.0593C71.4568 47.3606 71.0366 46.4779 70.4194 46.0882C69.4404 45.47 68.1112 45.6612 67.0125 46.0336C67.0898 45.2615 66.28 44.6606 65.4994 44.9409C65.2164 44.2364 64.4358 43.8468 63.731 44.2048C63.5822 43.4543 62.5798 42.8088 61.916 42.6851C60.9398 42.504 59.7638 42.7671 58.9789 43.4126C58.9234 43.1409 58.8023 42.8879 58.5645 42.7182C58.1866 42.4494 57.7707 42.5471 57.3958 42.7355C57.2732 42.0583 56.8078 41.4933 56.0855 41.3121C55.7135 41.2187 55.2539 41.246 54.8891 41.4128C54.9927 39.9678 55.0744 38.5229 55.1663 37.0795C55.3808 33.6879 55.7149 30.2704 55.7222 26.8716C55.7222 26.7782 55.6901 26.7077 55.642 26.6603C55.6303 26.6243 55.6099 26.5898 55.5807 26.5582C55 25.95 54.2281 25.5705 53.4023 25.421C53.8619 24.3772 53.9655 22.6203 53.1265 21.808C52.9792 21.6656 52.7559 21.7778 52.7413 21.9647C52.6976 22.5441 52.9456 23.145 52.9792 23.7316C53.0113 24.2794 52.966 24.8157 52.9339 25.3591C52.1139 25.2973 51.0007 25.4166 50.4448 26.0219C50.3777 26.0953 50.3528 26.1772 50.3601 26.2534C50.2974 26.3037 50.2522 26.3799 50.2405 26.4849C50.0683 28.1239 50.15 29.819 50.1238 31.468C50.099 33.0337 50.0785 34.5994 50.0669 36.1651L50.0275 41.0044C50.026 41.2474 50.0231 41.4904 50.0187 41.7334C49.0791 40.7888 47.4187 41.2891 46.8715 42.4839C46.4148 42.2078 45.8151 42.445 45.6736 42.9511C44.9806 42.468 43.9767 42.422 43.5784 43.1625C42.719 41.9476 40.8747 41.5436 39.6783 42.527C39.7629 41.66 39.7002 40.76 39.6477 39.9908C39.5601 38.6911 39.2625 36.7114 38.12 35.8171C38.1215 35.7711 38.1142 35.7237 38.0923 35.6748C37.9654 35.3959 37.567 35.3858 37.3102 35.4318C36.712 35.5397 36.1036 36.0975 36.1415 36.7344C36.1459 36.8048 36.1765 36.8566 36.2203 36.894C36.2203 36.9256 36.2291 36.9572 36.2451 36.9889C36.8886 38.1966 37.4445 39.3094 37.6969 40.668C37.818 41.3207 37.853 41.9706 37.8734 42.6204C36.8579 41.4444 34.5701 41.453 34.1703 43.0316C33.3401 42.5759 32.3771 43.0489 32.1014 43.9331C31.3368 43.1998 30.1973 43.1021 29.1891 43.5363C28.4449 43.8554 27.6643 44.4823 27.5345 45.2486C27.1989 45.1149 26.8166 45.0559 26.4869 45.0301C25.7107 44.9682 24.9023 45.1753 24.3552 45.7475C23.6111 46.5253 23.7176 47.8192 24.5478 48.3354C23.7103 48.9076 23.0697 49.8464 23.6942 50.8413C24.2618 51.7442 25.2744 51.5401 25.9806 50.9794C25.877 52.5393 25.8828 54.1064 25.8595 55.6692C25.8303 57.6188 25.8011 59.5683 25.7705 61.5164C25.7646 61.9032 25.7588 62.2914 25.753 62.6781C21.8295 63.2647 17.9863 65.3954 15.7686 68.6892C13.7653 71.6639 13.4034 75.6507 14.9938 78.8827L14.9967 78.8841ZM39.1326 42.688C39.0582 43.4213 38.8116 44.0452 38.565 44.7224C38.476 44.7626 38.3885 44.8101 38.3053 44.8647C38.2849 44.8417 38.2645 44.8202 38.2426 44.7986C38.2543 44.7828 38.263 44.7641 38.2688 44.7411C38.5548 43.4054 38.4031 41.88 38.1682 40.5458C37.9376 39.236 37.4999 37.7523 36.6172 36.7143C36.6974 36.477 36.7966 36.2801 37.0155 36.1205C37.1337 36.0342 37.2635 35.9695 37.408 35.9379C37.4664 35.925 37.5247 35.9192 37.5845 35.9163C37.6137 35.9163 37.6356 35.9135 37.6517 35.9106V35.9135C38.0004 36.5964 38.4775 37.1442 38.7299 37.8889C38.9896 38.6566 39.0903 39.4646 39.1341 40.2683C39.1778 41.0648 39.2099 41.8915 39.1282 42.6866L39.1326 42.688ZM35.3142 46.0623C35.3843 45.667 35.5885 45.3047 35.9008 45.0488C36.5457 44.5225 37.4328 44.6376 38.1273 44.9999C37.9406 45.1566 37.7771 45.3535 37.6487 45.5965C37.5539 45.7748 37.7903 45.9718 37.9391 45.8165C38.4979 45.2328 39.2493 44.823 40.0839 45.0689C40.9783 45.3305 41.3095 46.1199 41.4175 46.948C40.8208 46.9997 40.4706 47.4569 40.3932 47.9932C39.9847 47.7315 39.4288 47.8523 39.0961 48.2534C38.476 47.6956 37.5977 47.7876 37.0505 48.3598C36.8959 47.8451 36.4757 47.4009 35.9694 47.1751C35.7432 47.0745 35.4908 47.0458 35.2661 47.0918C35.2792 47.0759 35.2894 47.0573 35.2938 47.0342C35.3478 46.7093 35.2544 46.3901 35.3128 46.0638L35.3142 46.0623ZM51.1641 45.9143C50.9948 45.8237 50.8095 45.7633 50.614 45.7403C50.6636 45.3478 50.6986 44.9524 50.7249 44.5571C50.8635 44.5858 51.0036 44.6059 51.1437 44.6217C51.0371 44.6706 50.9306 44.721 50.8227 44.7785C50.6563 44.869 50.8081 45.125 50.9715 45.0301C51.0751 44.9711 51.1787 44.9194 51.2837 44.8705C51.1159 45.0099 50.9394 45.1408 50.7497 45.263C50.598 45.3607 50.7293 45.5721 50.8898 45.4988C51.6354 45.1595 52.3882 44.8403 53.1499 44.5398C52.5487 45.0042 51.9038 45.4039 51.2108 45.7389C51.1378 45.7734 51.132 45.8539 51.1626 45.9143H51.1641ZM53.7437 46.6475C53.7992 46.5929 53.8561 46.5368 53.9115 46.4822C53.9115 46.6446 53.9086 46.8085 53.9086 46.971C53.9028 46.9796 53.8969 46.9882 53.8925 46.9969C53.6956 46.7855 53.4504 46.6231 53.1761 46.5684C53.4125 46.4333 53.6854 46.2881 53.8459 46.3125C53.8707 46.3125 53.8925 46.3053 53.913 46.2967C53.913 46.3053 53.913 46.3139 53.913 46.3226C53.8342 46.4074 53.7539 46.4922 53.6751 46.5785C53.6328 46.6245 53.7 46.6906 53.7437 46.6461V46.6475ZM53.5132 32.6858C53.716 32.6283 53.9363 32.5564 54.1523 32.4658C53.7058 32.8684 53.2579 33.2709 52.807 33.6706C53.0419 33.4003 53.2783 33.1315 53.5103 32.8597C53.5613 32.7994 53.5511 32.7318 53.5132 32.6872V32.6858ZM51.7594 32.9388C51.9097 32.9474 52.0629 32.9446 52.2161 32.9331C51.9739 33.1674 51.7215 33.3888 51.4544 33.5959C51.5332 33.4233 51.6325 33.2609 51.7579 33.0998C51.7973 33.0495 51.79 32.9891 51.7594 32.9403V32.9388ZM50.9394 28.8327C51.0007 28.8614 51.078 28.8629 51.1378 28.8169C51.2356 28.7407 51.3333 28.6645 51.4311 28.5897C51.3654 28.6688 51.2969 28.7464 51.2327 28.8284C51.1262 28.9621 51.2575 29.1662 51.4253 29.0742C51.879 28.8241 52.3095 28.5423 52.7253 28.2432C52.4685 28.5121 52.2132 28.7795 51.9578 29.0498C51.8878 29.1231 51.9184 29.2338 51.9855 29.287C51.6894 29.2697 51.3917 29.2539 51.0868 29.2899C51.0226 29.2971 50.97 29.3229 50.9292 29.3589C50.9321 29.1835 50.9365 29.0081 50.9379 28.8341L50.9394 28.8327ZM54.3157 28.7996C54.2106 28.8557 54.1041 28.9089 53.9961 28.9578C54.2267 28.722 54.4587 28.4891 54.6907 28.2547C54.5739 28.4215 54.4528 28.5868 54.3274 28.7493C54.3142 28.7665 54.3113 28.7838 54.3157 28.7996ZM55.0292 27.6192C54.7826 27.8723 54.536 28.1239 54.2865 28.3726C54.5316 28.0491 54.784 27.7299 55.0496 27.4208C55.0423 27.487 55.035 27.5531 55.0292 27.6192ZM53.2476 29.2223C53.0974 29.2611 52.95 29.2827 52.8041 29.2942C52.8216 29.2884 52.8391 29.2798 52.8552 29.2669C53.2783 28.9391 53.6897 28.5998 54.0924 28.2504C53.8546 28.5494 53.6285 28.8557 53.4154 29.1734C53.36 29.1907 53.3045 29.2065 53.2476 29.2209V29.2223ZM52.7413 29.2985C52.5371 29.3114 52.3343 29.3042 52.1344 29.2927C52.1387 29.2899 52.1417 29.2899 52.146 29.287C52.5969 28.9578 53.0302 28.6113 53.4519 28.2533C53.1907 28.5293 52.9281 28.8025 52.6596 29.0742C52.5663 29.1691 52.6421 29.2841 52.7428 29.2985H52.7413ZM50.9204 27.2267C51.2575 27.2569 51.5974 27.2699 51.9359 27.2656C51.7317 27.3561 51.5332 27.4553 51.3406 27.5646C51.3085 27.4898 51.2239 27.4338 51.1276 27.4496C51.0094 27.4697 50.9744 27.474 50.9277 27.4985C50.9248 27.4079 50.9233 27.3173 50.919 27.2267H50.9204ZM50.8577 41.4401C50.8387 41.4429 50.8183 41.4444 50.7993 41.4473C50.7993 41.2517 50.8022 41.0562 50.8037 40.8621L50.8183 39.5983C50.9744 39.5049 51.1305 39.4114 51.2866 39.3194C51.1918 39.4805 51.1116 39.6515 51.043 39.8399C50.9992 39.9592 51.1743 40.0555 51.2589 39.9635C51.4953 39.7062 51.7477 39.4934 52.0293 39.3166C51.6718 39.7479 51.3144 40.1806 50.9584 40.6119C50.8548 40.7385 51.0123 40.898 51.1393 40.7902C51.4048 40.5674 51.6704 40.3445 51.9359 40.1217C51.5799 40.5113 51.2239 40.9038 50.8679 41.292C50.8285 41.3351 50.8329 41.3955 50.8577 41.4401ZM51.5099 41.3941C51.3727 41.3984 51.2356 41.4041 51.0984 41.4156C51.3158 41.2517 51.5289 41.085 51.7404 40.9153C51.65 41.0073 51.5595 41.0993 51.469 41.1913C51.4048 41.256 51.4428 41.3581 51.5084 41.3941H51.5099ZM51.9564 41.3768C51.8411 41.384 51.7273 41.3883 51.612 41.3912C51.6149 41.3897 51.6193 41.3883 51.6222 41.3869C51.631 41.3811 51.6383 41.3739 51.647 41.3667C52.1139 41.0174 52.5663 40.6551 53.0098 40.2827C52.6713 40.6048 52.3182 40.911 51.9447 41.2072C51.8834 41.2546 51.9053 41.3337 51.9549 41.3782L51.9564 41.3768ZM53.1616 40.5185C53.2593 40.4394 53.3571 40.3589 53.4563 40.2798C53.1791 40.5875 52.9106 40.9009 52.6523 41.2244C52.6377 41.2431 52.6319 41.2632 52.629 41.2834C52.4612 41.3236 52.2963 41.3481 52.13 41.3639C52.4904 41.1022 52.8362 40.8204 53.1616 40.5185ZM51.5901 39.3122C51.647 39.2289 51.7127 39.1455 51.7857 39.0592C51.8542 39.0535 51.9213 39.0477 51.9899 39.0391C51.8498 39.1225 51.7171 39.213 51.5901 39.3122ZM50.8212 39.2964C50.8212 39.2159 50.8227 39.1354 50.8241 39.0549C50.9423 39.0664 51.0663 39.0736 51.1904 39.0765C51.0678 39.1498 50.9438 39.2231 50.8212 39.2964ZM51.0444 35.4189C50.9846 35.4189 50.9248 35.4218 50.8635 35.4232C50.8635 35.2852 50.865 35.1457 50.8664 35.0077C50.919 35.0566 51.0036 35.071 51.0707 35.012C51.3056 34.8035 51.5405 34.5965 51.7754 34.388C51.5303 34.6655 51.2852 34.9416 51.0415 35.2205C50.9817 35.2881 50.9963 35.3686 51.0415 35.4189H51.0444ZM51.2166 34.1594C51.2385 34.1436 51.2604 34.1264 51.2823 34.1091C51.1349 34.3277 50.9963 34.5534 50.8694 34.7849C50.8723 34.4484 50.8737 34.1134 50.8767 33.777C50.9438 33.7252 51.0123 33.6749 51.0795 33.6232C51.0401 33.7353 51.0065 33.8532 50.9817 33.9797C50.9584 34.1005 51.0941 34.2471 51.2166 34.158V34.1594ZM50.9394 28.2288C51.078 28.1239 51.221 28.029 51.3654 27.9384C51.2166 28.1282 51.0751 28.3237 50.9379 28.525C50.9379 28.4258 50.9379 28.328 50.9379 28.2303L50.9394 28.2288ZM52.1285 27.2627C52.324 27.2555 52.5181 27.2426 52.7122 27.2224C52.4189 27.4467 52.1227 27.6696 51.8265 27.891C51.9345 27.7616 52.0468 27.6322 52.1621 27.5071C52.2467 27.4165 52.2088 27.3087 52.1285 27.2612V27.2627ZM53.0171 27.1865C53.2856 27.1491 53.5526 27.0988 53.8167 27.0326C53.2491 27.4927 52.6742 27.937 52.0614 28.3323C52.3605 27.9988 52.6728 27.6782 53.004 27.372C53.0711 27.3101 53.0623 27.2368 53.0186 27.1865H53.0171ZM50.8825 32.6771C51.0503 32.7979 51.256 32.8698 51.4763 32.9086C51.3231 33.0236 51.1699 33.1372 51.0167 33.2522C50.9978 33.1904 50.9394 33.1573 50.8781 33.1602C50.8781 32.9992 50.881 32.8382 50.881 32.6786L50.8825 32.6771ZM52.6232 32.9417C52.6421 32.9216 52.6523 32.9 52.6582 32.8784C52.8581 32.8454 53.0492 32.8037 53.217 32.7634C52.6932 33.2177 52.1694 33.6721 51.6456 34.1278C51.9418 33.7123 52.2642 33.3184 52.6232 32.9431V32.9417ZM54.6907 32.2933C54.6834 32.427 54.6761 32.5607 54.6688 32.6944C54.269 33.028 53.8663 33.3601 53.4636 33.6907C53.875 33.2278 54.2836 32.762 54.6907 32.2933ZM53.8211 34.8424C54.1158 34.5649 54.374 34.2701 54.6017 33.9524C54.5929 34.1163 54.5841 34.2816 54.5754 34.4455C54.0662 34.7662 53.5482 35.0408 52.9515 35.2176C52.3766 35.3873 51.8309 35.4031 51.2648 35.416C51.8032 34.9186 52.3416 34.4225 52.8814 33.928C52.6129 34.2256 52.343 34.5217 52.0775 34.8208C51.9607 34.9531 52.1387 35.1285 52.273 35.0134C52.9018 34.4686 53.5322 33.9251 54.1639 33.3845C53.7627 33.8719 53.3644 34.3607 52.9719 34.8553C52.8785 34.9746 53.0302 35.1371 53.144 35.0249C53.5774 34.6008 54.0151 34.1796 54.466 33.7713C54.2413 34.1091 53.9932 34.4283 53.7102 34.7331C53.6416 34.8064 53.7481 34.9114 53.8211 34.8424ZM54.1275 33.7971C54.3011 33.5757 54.4733 33.3543 54.6469 33.1315C54.644 33.2005 54.6396 33.2695 54.6352 33.3385C54.466 33.4909 54.2967 33.6433 54.1275 33.7957V33.7971ZM54.5404 35.1198C54.5068 35.7266 54.4733 36.3333 54.4324 36.9386C54.4193 37.1485 54.4032 37.3569 54.3886 37.5668C53.875 37.7954 53.3935 38.0672 52.8406 38.221C52.1752 38.4065 51.5157 38.4439 50.8314 38.4352L50.8577 36.1679C50.8577 36.1277 50.8577 36.0874 50.8577 36.0457C52.0629 36.2786 53.5059 35.856 54.5389 35.1198H54.5404ZM54.3463 38.1865C54.3434 38.2368 54.339 38.2886 54.3361 38.3389C54.3055 38.336 54.2719 38.3447 54.2427 38.3734C53.554 39.0578 52.8333 39.7076 52.0877 40.3273C52.5035 39.8758 52.9164 39.4229 53.325 38.9657C53.4256 38.8522 53.2739 38.7055 53.1586 38.8018C52.772 39.1253 52.3824 39.4459 51.9928 39.7651C52.2059 39.5092 52.4189 39.2533 52.6305 38.9959C52.6494 38.9729 52.6582 38.9485 52.6626 38.9255C53.2768 38.7817 53.8707 38.5387 54.3478 38.1865H54.3463ZM54.3142 38.6451C54.3098 38.7026 54.3055 38.7602 54.3025 38.8177C53.8765 39.226 53.4388 39.6213 52.9865 40.0009C53.4286 39.548 53.8721 39.0966 54.3142 38.6437V38.6451ZM54.234 39.7809C54.2281 39.8744 54.2208 39.9664 54.215 40.0599C53.9378 40.3215 53.646 40.5631 53.3366 40.7816C53.6314 40.4437 53.9305 40.1102 54.234 39.7809ZM53.681 40.7917C53.646 40.8362 53.6109 40.8794 53.5759 40.9239C53.5701 40.9311 53.5672 40.9397 53.5643 40.9469C53.4869 40.9829 53.4096 41.0174 53.3323 41.0504C53.4504 40.9671 53.5672 40.8808 53.681 40.7931V40.7917ZM54.1873 40.4394C54.1829 40.4998 54.1785 40.5616 54.1741 40.622C54.0808 40.6781 53.9859 40.7313 53.8896 40.783C53.9888 40.6694 54.0881 40.5544 54.1873 40.4394ZM54.1289 41.2992C54.0881 41.9231 54.0487 42.5457 54.0151 43.1697C53.0346 43.8253 51.9753 44.1818 50.776 43.9144C50.7687 43.913 50.7628 43.9144 50.757 43.9115C50.7833 43.2674 50.7906 42.6204 50.7949 41.9763C51.8294 42.343 53.163 41.9375 54.1289 41.2992ZM51.9491 44.6333C52.0585 44.6246 52.1679 44.6131 52.2774 44.5959C52.1052 44.6678 51.9345 44.7411 51.7623 44.8158C51.825 44.7569 51.8878 44.6965 51.9491 44.6347V44.6333ZM53.983 43.8626C53.9815 43.9101 53.9786 43.959 53.9772 44.0064C53.9451 43.9733 53.8969 43.9546 53.8459 43.9748C53.8386 43.9776 53.8327 43.9805 53.8254 43.982C53.8794 43.9431 53.9319 43.9043 53.983 43.8626ZM53.9684 44.2206C53.9655 44.3011 53.9611 44.3817 53.9582 44.4607C53.6912 44.6102 53.4198 44.7526 53.147 44.8906C53.43 44.6821 53.7043 44.4593 53.9684 44.2206ZM53.9436 44.8604C53.9422 44.9165 53.9407 44.9726 53.9378 45.0301C53.9232 45.0315 53.9071 45.0358 53.8911 45.0444C53.7729 45.1034 53.6533 45.1623 53.5351 45.2213C53.6737 45.1048 53.8094 44.9855 53.9422 44.8604H53.9436ZM53.9276 45.3579C53.9261 45.4254 53.9246 45.493 53.9232 45.5591C53.786 45.6339 53.6489 45.7072 53.5117 45.782C53.6562 45.6468 53.7933 45.5031 53.9276 45.3564V45.3579ZM53.9174 45.8151C53.9144 45.9272 53.9115 46.0393 53.9101 46.1529C53.6956 46.2234 53.484 46.301 53.2754 46.3844C53.4898 46.1961 53.7043 46.0063 53.9174 45.8151ZM52.8085 46.5627C52.7486 46.5727 52.6888 46.5871 52.629 46.6087C52.362 46.7007 52.1271 46.9106 52.0118 47.1593C52.0031 47.0659 51.9841 46.9739 51.9578 46.8833C52.1723 46.7755 52.378 46.6547 52.5765 46.5239C52.8099 46.393 53.0434 46.2636 53.2768 46.1328C53.1192 46.2751 52.9631 46.4175 52.807 46.5612L52.8085 46.5627ZM51.8747 46.6633C51.8309 46.5713 51.7784 46.4822 51.7171 46.3988C51.9111 46.3039 52.1008 46.2032 52.2847 46.0954C52.6465 45.9143 53.0113 45.7389 53.376 45.562C52.9208 45.9847 52.4189 46.3413 51.8747 46.6619V46.6633ZM51.5318 46.186C51.4559 46.1127 51.3742 46.0465 51.2852 45.989C51.2954 45.989 51.3042 45.989 51.3144 45.9847C51.917 45.7576 52.5035 45.5002 53.0784 45.2184C52.5925 45.5821 52.076 45.9028 51.5318 46.186ZM54.1523 26.413C53.0682 26.6157 52.006 26.7192 50.881 26.6085C50.8781 26.5726 50.8767 26.5352 50.8737 26.4993C51.5974 26.3569 52.2 26.0564 52.9923 26.1254C53.4052 26.1614 53.789 26.2635 54.1523 26.4144V26.413ZM54.7621 26.7221C54.7621 26.7221 54.7724 26.7279 54.7767 26.7307C54.3624 27.1448 53.9246 27.5344 53.4694 27.9053C53.7671 27.589 54.0662 27.2727 54.3609 26.955C54.3901 26.9234 54.4003 26.8903 54.4018 26.8587C54.5229 26.817 54.6425 26.7724 54.7621 26.7221ZM55.0963 26.9363C55.0904 26.9838 55.0875 27.0298 55.0817 27.0772C54.803 27.3346 54.5185 27.5847 54.2311 27.8306C54.4966 27.5186 54.7519 27.198 55 26.8716C55.0321 26.8932 55.0642 26.9133 55.0963 26.9349V26.9363ZM54.9533 28.4085C54.8526 28.4776 54.7505 28.5437 54.6483 28.607C54.7607 28.4718 54.8701 28.3352 54.9737 28.1943C54.9679 28.2662 54.9606 28.3367 54.9547 28.4085H54.9533ZM54.7359 31.4594C54.2135 31.6147 53.7043 31.9914 53.1791 32.1236C52.7574 32.23 52.3226 32.2832 51.8878 32.2717C51.5274 32.2631 51.2516 32.1711 50.9117 32.2818C50.9015 32.2847 50.8927 32.2904 50.8839 32.2947C50.8854 31.9727 50.8898 31.6492 50.8912 31.3271C50.8927 30.7923 50.9073 30.2517 50.919 29.7097C50.9321 29.7212 50.9423 29.7341 50.9584 29.7456C51.5785 30.1611 52.6144 30.0145 53.3031 29.8391C53.8867 29.6896 54.4412 29.4178 54.8993 29.034C54.8351 29.8405 54.7826 30.6485 54.7344 31.458L54.7359 31.4594ZM71.9295 54.5118C71.5983 54.417 71.4276 54.8109 71.6173 55.0395C72.0769 55.5916 71.9529 56.5405 71.2657 56.8568C70.6251 57.1515 69.9087 56.782 69.6301 56.1868C69.5235 55.9596 69.204 56.0114 69.0858 56.1868C68.6204 56.8697 67.51 56.8582 67.0548 56.1724C66.9512 56.0157 66.6959 55.9481 66.5558 56.1092C65.7723 57.0092 64.5204 57.5857 63.3137 57.2349C62.1115 56.8855 61.433 55.7497 61.5322 54.555C61.5614 54.2027 60.9676 54.1265 60.9077 54.4716C60.8844 54.6082 60.8742 54.7433 60.8713 54.8785C60.543 55.3601 59.8762 55.4334 59.4239 54.9518C59.2473 54.7634 58.9832 54.9288 58.957 55.143C58.7469 56.874 56.408 57.025 55.9061 55.3889C55.8287 55.1358 55.4931 55.1013 55.3502 55.317C54.679 56.332 53.2856 55.9524 53.0623 54.8296C53.004 54.5334 52.6173 54.5535 52.47 54.7534C52.3372 54.9331 52.1927 55.12 52.0366 55.294C51.9593 55.3026 51.8863 55.3716 51.8907 55.4464C51.4676 55.8691 50.9525 56.1566 50.3003 55.9424C49.3636 55.6347 49.0732 54.6556 48.8544 53.8131C48.8194 53.6808 48.7377 53.6061 48.6428 53.5773C48.672 53.4738 48.5348 53.3947 48.459 53.4724C47.6579 54.2933 46.428 54.5866 45.7685 53.3919C45.6503 53.1776 45.3687 53.2179 45.2417 53.3919C44.4349 54.496 42.9043 54.3019 42.293 53.1331C42.1689 52.8958 41.8611 52.9519 41.7239 53.1331C41.2264 53.7944 40.5231 54.3882 39.6593 54.463C38.7547 54.542 37.8501 53.9109 37.8676 52.9692C37.8734 52.6687 37.4839 52.5206 37.2723 52.7262C36.4202 53.5601 35.0312 52.9016 35.269 51.7054C35.3478 51.3086 34.8152 51.057 34.592 51.4236C34.2141 52.049 33.5809 52.65 32.7842 52.591C32.0459 52.5364 31.6155 51.8377 31.7979 51.1677C31.8738 50.8902 31.6243 50.6846 31.3893 50.6961C31.3908 50.6774 31.3937 50.6602 31.3937 50.6415C31.4054 50.4043 31.0654 50.3856 30.9954 50.5883C30.6467 51.6005 29.4853 51.9283 28.5208 52.1094C27.3565 52.3279 26.7758 50.7062 26.8385 49.7976C26.856 49.5474 26.6036 49.4338 26.4008 49.4928C26.2797 49.4338 26.1075 49.4971 26.0871 49.6753C26.0783 49.7587 26.071 49.8421 26.0623 49.9255C26.0375 49.9442 26.0127 49.9672 25.9908 49.9945C25.7384 50.3194 25.4772 50.6429 25.0555 50.7393C24.5201 50.8615 24.0998 50.548 24.0984 49.9902C24.0955 49.221 24.8717 48.784 25.4962 48.5122C25.8128 48.3742 25.6071 47.9645 25.3386 47.9371C24.2049 47.8207 24.3727 46.4592 25.0978 45.9631C25.5779 45.6339 26.9202 45.4398 27.568 45.8654C27.5987 45.9646 27.641 46.0667 27.6964 46.1673C27.765 46.2924 27.8861 46.3168 27.9912 46.2809C28.159 46.3211 28.3764 46.1716 28.3093 45.9761C28.2523 45.8093 28.156 45.6713 28.0349 45.5563C27.9226 44.731 29.03 44.084 29.7318 43.8713C30.6 43.6082 31.509 43.8526 32.078 44.5499C32.1962 44.6936 32.437 44.57 32.4355 44.4032C32.4282 43.4299 33.5108 43.1078 34.1776 43.6987C34.341 43.8439 34.6372 43.7519 34.6299 43.5133C34.5745 41.6327 37.0374 42.1805 37.8764 43.0589C37.8895 43.555 37.9026 44.051 37.9493 44.5484C37.2665 44.0826 36.2918 44.1272 35.6163 44.6419C34.9874 45.1206 34.3571 46.4247 35.0283 47.0918C35.0472 47.1104 35.0735 47.1234 35.0998 47.1291C34.859 47.2283 34.681 47.4339 34.6635 47.7603C34.6533 47.9486 34.9538 48.0392 35.0356 47.8595C35.482 46.8804 36.7966 48.2808 36.6566 48.9723C36.6507 48.9723 36.6464 48.9709 36.6405 48.9694C36.3852 48.9435 36.0306 48.9292 35.8526 49.142C35.7578 49.2555 35.7884 49.4194 35.9402 49.4669C36.1561 49.5345 36.3764 49.4324 36.5968 49.4295C36.8404 49.4266 37.0782 49.4841 37.3044 49.569C37.5087 49.6452 37.6152 49.3404 37.4474 49.2368C37.3292 49.1635 37.2081 49.1074 37.0812 49.0643C37.3934 48.2577 38.4118 48.2649 38.8817 48.922C39.0451 49.1506 39.4434 49.0844 39.4419 48.7725C39.9161 48.2649 40.243 48.2175 40.4195 48.6272C40.4268 48.6431 40.4326 48.6574 40.4385 48.6733C40.5377 48.8688 40.866 48.7293 40.7945 48.5252C40.6821 48.2031 40.6924 47.7632 40.9783 47.5159C41.6145 46.9609 42.3338 47.8006 41.9836 48.3555C41.8844 48.5122 42.115 48.6848 42.2419 48.551C42.7569 48.0061 42.5177 47.1565 41.8188 46.9724C42.1412 45.3593 40.4341 44.2968 39.0334 44.5642C39.3194 44.13 39.4886 43.6268 39.5893 43.0949C39.6287 43.0978 39.6696 43.0877 39.7104 43.0604C41.0425 42.1589 42.6358 42.3027 43.4412 43.7965C43.5507 43.9978 43.8235 43.8828 43.8425 43.6901C43.9534 42.5572 45.2651 43.0244 45.7232 43.5391C45.8618 43.6944 46.1113 43.5291 46.0617 43.3451C46.2908 43.266 46.5199 43.1883 46.749 43.1093C46.854 43.2976 47.1867 43.2674 47.2319 43.0474C47.5237 41.6212 49.0134 41.4243 50.0041 42.2351C49.991 43.4155 49.9925 44.6031 50.1194 45.7691C49.6233 45.8941 49.1039 46.2694 48.9098 46.7295C48.459 46.3125 47.7221 46.3068 47.2436 46.7481C47.0305 46.4405 46.7227 46.1889 46.3448 46.2665C46.231 46.2895 46.1639 46.4462 46.231 46.5411C46.4484 46.8459 46.7898 46.9451 46.9328 47.3319C47.0101 47.5403 47.3253 47.6252 47.4449 47.398C47.7805 46.7625 48.656 46.8358 48.8836 47.5188C48.9594 47.7445 49.2629 47.6769 49.2775 47.4713C49.422 47.2168 49.4526 46.9394 49.6656 46.7136C49.8568 46.5124 50.15 46.3528 50.4346 46.3456C51.1334 46.3283 51.5274 47.0457 51.5143 47.6525C51.3684 47.697 51.2414 47.7718 51.1568 47.8868C51.0517 48.0277 51.1991 48.1844 51.3377 48.1988C51.5551 48.2218 51.7667 48.0895 51.9885 48.0752C52.0935 48.0694 52.1971 48.0737 52.3007 48.0867C52.3707 48.0953 52.4379 48.1082 52.505 48.1255C52.5312 48.1456 52.5546 48.1542 52.5765 48.1571C52.5356 48.2578 52.6173 48.3929 52.7618 48.3699C52.9193 48.344 52.9704 48.2046 52.9398 48.0637C52.8975 47.8724 52.7457 47.779 52.5735 47.7114C52.5021 47.6841 52.4189 47.6597 52.3299 47.6395C52.3474 47.5504 52.3722 47.5317 52.5006 47.3333C52.8493 46.7941 53.4913 47.1047 53.7058 47.6093C53.7992 47.8279 54.1231 47.8696 54.2019 47.6093C54.3376 47.1521 54.66 46.7568 55.1926 46.7668C55.4494 46.7769 55.6726 46.8703 55.8637 47.0443C56.0695 47.2053 56.1614 47.4196 56.1439 47.6855C56.0782 47.7042 56.0388 47.7531 56.0213 47.8077C55.7645 47.7028 55.4873 47.6726 55.2597 47.8049C55.1488 47.8681 55.1371 48.0493 55.2597 48.1097C55.4362 48.1959 55.6332 48.2046 55.8214 48.2606C56.0257 48.321 56.2125 48.436 56.37 48.5769C56.5772 48.7624 56.853 48.4835 56.675 48.2764C56.6268 48.2204 56.5699 48.1643 56.5057 48.1097C56.5495 48.091 56.5874 48.055 56.6035 48.0004C56.6166 47.9601 56.6341 47.9228 56.6531 47.8868C56.675 47.8595 56.6925 47.8307 56.7085 47.802C56.8238 47.6496 57.0018 47.5475 57.2032 47.5648C57.4687 47.5878 57.5869 47.8106 57.8014 47.93C57.9123 47.9918 58.0844 47.94 58.1107 47.8063C58.2114 47.2916 57.5811 46.9465 57.1258 46.9854C56.961 46.9997 56.8121 47.0558 56.6837 47.1406C56.5174 46.7726 56.1585 46.4261 55.8521 46.2924C55.3472 46.071 54.8015 46.163 54.3828 46.4491C54.5812 44.9682 54.7198 43.4802 54.8322 41.9893C55.6463 41.407 56.834 42.2222 56.8574 43.1984C56.8618 43.3867 57.0967 43.5636 57.2747 43.4342C57.5577 43.2272 58.064 42.9051 58.3821 43.2861C58.5236 43.4558 58.5032 43.7922 58.4901 43.9963C58.4755 44.2091 58.7819 44.3328 58.9234 44.1732C59.5129 43.5133 60.5838 43.2013 61.4564 43.2487C62.0414 43.2804 62.6032 43.5118 62.9169 44.0222C63.0832 44.2925 63.0949 44.6088 63.2204 44.8964C63.286 45.0473 63.5136 45.0186 63.5881 44.8964C63.6362 44.8158 63.6712 44.7368 63.696 44.6563C64.3088 44.432 64.9275 44.6821 64.9815 45.3938C65.0019 45.6612 65.2952 45.7806 65.5023 45.6066C66.0831 45.1163 66.6054 45.9056 66.2888 46.3614C66.1516 46.5598 66.3792 46.8157 66.5966 46.7553C67.4152 46.531 68.2614 46.2651 69.1223 46.3384C70.1436 46.4261 70.9593 47.2542 70.4252 48.2463C70.2823 48.5122 70.5814 48.7538 70.8163 48.6201C71.2496 48.5295 71.7297 48.3541 72.1732 48.472C72.5861 48.5812 73.0647 49.1074 72.6095 49.4956C72.4008 49.6739 72.5905 49.9571 72.8137 49.9816C74.1809 50.1282 75.3277 51.5501 74.9571 52.9073C74.6128 54.1654 73.1479 54.8655 71.9208 54.5104L71.9295 54.5118ZM28.5646 73.1203C28.1721 72.7436 27.7679 72.3813 27.3667 72.0147C27.0311 71.707 26.7043 71.349 26.322 71.096C26.3278 70.8027 26.3351 70.5108 26.3395 70.2175C26.9319 70.8185 27.5797 71.3778 28.194 71.9529C28.5471 72.2835 28.8973 72.7019 29.2985 72.9751C29.4211 73.0585 29.4429 73.1304 29.5903 73.1332C29.6122 73.1332 29.6355 73.1203 29.6458 73.1016L29.6779 73.0412C29.6895 73.0182 29.6866 72.9923 29.6691 72.9736C29.656 72.9593 29.6428 72.9463 29.6312 72.9319C29.5903 72.8874 29.5101 72.9478 29.5465 72.9966C29.1117 72.4201 28.4697 71.9327 27.9459 71.4295C27.4178 70.922 26.8998 70.3901 26.3439 69.9099C26.3629 68.9293 26.3804 67.9488 26.3964 66.9683C28.3559 69.2686 30.5591 71.4554 32.8893 73.4007C32.2852 73.3676 31.6812 73.3403 31.0771 73.3173C31.1296 73.3043 31.1661 73.2411 31.1165 73.1893C29.6516 71.6553 28.1619 70.0709 26.6065 68.6274C26.481 68.511 26.3162 68.6835 26.4212 68.81C27.7694 70.4174 29.4021 71.9414 31.0042 73.3C31.0129 73.3072 31.0231 73.3129 31.0319 73.3158C30.2104 73.2842 29.389 73.2612 28.5675 73.2482C28.5981 73.2137 28.6054 73.1634 28.5617 73.1217L28.5646 73.1203ZM41.9048 74.8887C40.7215 75.2366 39.5499 75.6147 38.3841 76.013C38.9138 75.6464 39.4434 75.2783 39.9745 74.9117C40.0635 74.8499 40.1087 74.7665 40.1219 74.6817C41.651 74.8254 43.1786 74.9793 44.7048 75.1432C44.7033 75.1432 44.7019 75.1432 44.699 75.1432C43.2662 75.6219 41.8333 76.0993 40.4005 76.578C40.9856 76.21 41.5707 75.8419 42.1558 75.4738C42.4607 75.2812 42.2682 74.7794 41.9048 74.8873V74.8887ZM46.9795 75.5774C45.3949 76.2085 43.8104 76.8382 42.2244 77.4694C43.1319 76.89 44.0409 76.3106 44.9485 75.7312C45.1659 75.5932 45.125 75.2826 44.9485 75.169C46.3652 75.3214 47.7805 75.481 49.1958 75.6435C48.0431 76.1136 46.889 76.5838 45.7364 77.0539C46.2339 76.7563 46.7314 76.4587 47.229 76.1611C47.5325 75.9799 47.3282 75.4365 46.9795 75.5759V75.5774ZM73.2033 56.6799C73.1668 56.9991 73.1347 57.3197 73.1055 57.6389C73.0107 57.1299 72.821 56.5419 72.5059 56.1092C72.5467 55.8187 72.519 55.5168 72.4271 55.2336C72.4752 55.2365 72.5234 55.235 72.5715 55.2365C72.6824 55.4766 72.824 55.7037 72.9319 55.9453C73.0384 56.1854 73.1245 56.4312 73.2048 56.6785L73.2033 56.6799ZM72.824 55.2293C73.0195 55.2149 73.2135 55.1847 73.4032 55.1358C73.3521 55.4809 73.3069 55.8274 73.2631 56.1739C73.1595 55.8346 73.0165 55.5039 72.824 55.2293ZM73.0807 57.8948C73.0472 58.2686 73.018 58.6424 72.9903 59.0177C72.7379 58.352 72.3994 57.6978 71.9821 57.1299C72.1951 56.9315 72.3425 56.6914 72.43 56.4312C72.503 56.5534 72.5759 56.6756 72.6372 56.805C72.7977 57.1429 72.9042 57.4879 72.999 57.8488C73.0107 57.8934 73.0486 57.9063 73.0822 57.8948H73.0807ZM72.9669 59.3613C72.9363 59.8055 72.91 60.2512 72.8852 60.6955C72.3643 59.6129 71.7836 58.5116 71.041 57.5641C71.2992 57.5325 71.5516 57.4448 71.7807 57.2895C71.8026 57.2752 71.823 57.2579 71.8449 57.2421C72.217 57.9494 72.6036 58.6482 72.9669 59.3613ZM72.8677 61.0391C72.8517 61.3554 72.8342 61.6703 72.8196 61.9866C72.7685 61.9693 72.7174 61.9549 72.6664 61.9391C71.6056 60.2282 70.4967 58.4915 69.2624 56.9028C69.2799 56.8884 69.2988 56.8755 69.3163 56.8611C69.6811 57.314 70.2575 57.5828 70.8338 57.5799C71.4802 58.7488 72.2301 59.863 72.8663 61.0405L72.8677 61.0391ZM50.5119 60.3246C48.4794 58.5231 46.9605 56.3205 45.2388 54.2502C45.3293 54.1812 45.4183 54.1078 45.5 54.023C45.9494 54.4888 46.6308 54.7433 47.2538 54.6987C48.637 56.7777 50.2347 58.8725 52.0643 60.5934C50.9102 60.4985 49.7561 60.3893 48.6034 60.2728C47.7586 59.1988 46.8686 58.1565 45.9902 57.1098C45.3278 56.3205 44.6931 55.3874 43.8658 54.7404C44.2642 54.7275 44.6625 54.6139 45.02 54.3983C46.5826 56.5333 48.2576 58.8768 50.4273 60.4309C50.4915 60.477 50.5688 60.3749 50.5119 60.3231V60.3246ZM32.5157 58.2974C30.6861 56.3334 28.8666 54.3494 27.0092 52.4085C27.3375 52.7133 27.7169 52.916 28.0962 52.9347C28.3005 52.9447 28.5194 52.9304 28.7426 52.8958C29.4926 53.8663 30.4482 54.7275 31.2916 55.6131C32.2633 56.6339 33.2205 57.6791 34.2491 58.6467C33.1665 58.5447 32.0839 58.4584 31.0012 58.3894C29.4561 56.9085 27.9897 55.3817 26.6124 53.747C26.6197 53.3171 26.624 52.8872 26.624 52.4573C28.4128 54.542 30.3811 56.5434 32.383 58.4268C32.4705 58.5087 32.596 58.3836 32.5157 58.2959V58.2974ZM26.5627 56.7116L26.5759 55.8806C27.3404 56.7518 28.1925 57.6001 29.1249 58.2945C28.798 58.2816 28.4712 58.2729 28.1444 58.2643C28.1911 58.2183 28.2115 58.1378 28.1546 58.0846C27.8161 57.7755 27.4674 57.4807 27.1172 57.1831C26.9363 57.0307 26.7539 56.8625 26.5642 56.7087L26.5627 56.7116ZM27.0092 57.5037C27.3288 57.7582 27.6468 58.0141 27.9737 58.26C27.4951 58.2485 27.0165 58.2413 26.5394 58.2413C26.5452 57.8776 26.5511 57.5138 26.5569 57.1515C26.7087 57.2723 26.8648 57.3873 27.0107 57.5037H27.0092ZM26.5817 55.4737C26.589 55.0481 26.5963 54.6226 26.6051 54.197C27.8336 55.7023 29.2037 57.1184 30.6963 58.3707C30.2644 58.3448 29.8325 58.3247 29.4021 58.306C28.4333 57.3787 27.4703 56.4815 26.5832 55.4737H26.5817ZM29.0899 52.8268C29.3116 52.7722 29.5349 52.6974 29.7494 52.6026C30.7488 53.6981 31.8577 54.7074 32.917 55.744C33.9763 56.7806 35.021 57.843 36.124 58.8336C35.5418 58.7718 34.9582 58.7129 34.3761 58.6582C34.3921 58.6352 34.395 58.6022 34.3717 58.5734C33.4933 57.5152 32.5333 56.5189 31.5965 55.5125C30.7809 54.6341 29.9901 53.6391 29.0899 52.8268ZM30.0222 52.4717C30.3768 52.2834 30.6977 52.0418 30.94 51.7543C31.0217 52.4142 31.5309 53.0296 32.1802 53.2711C34.0974 55.1315 35.7213 57.2953 37.7655 59.0177C37.3059 58.9645 36.8463 58.9127 36.3867 58.8638C35.3463 57.7165 34.2199 56.6368 33.1242 55.5413C32.0984 54.5162 31.1004 53.4451 30.0222 52.4732V52.4717ZM32.7113 53.3847C33.1037 53.4149 33.4816 53.3257 33.8274 53.1561C34.8182 54.3911 36.0146 55.5068 37.0987 56.6598C37.7173 57.3168 38.3345 57.9753 38.9619 58.6252C39.1034 58.7718 39.28 59.0205 39.4784 59.2189C39.0057 59.1614 38.5315 59.1054 38.0587 59.0507C36.2174 57.2234 34.5687 55.1976 32.7113 53.3847ZM34.0857 53.0123C34.2871 52.8858 34.4753 52.7334 34.646 52.5637C34.9159 53.2941 35.6119 53.7743 36.3648 53.793C37.8311 55.7569 39.4594 57.8028 41.311 59.4432C40.8718 59.39 40.4326 59.3368 39.9935 59.2836C39.9103 59.114 39.4799 58.7546 39.3661 58.6295C39.1107 58.3477 38.851 58.0702 38.5913 57.7927C38.0733 57.2363 37.5524 56.6828 37.0316 56.1293C36.0613 55.0999 35.1319 53.9741 34.0842 53.0152L34.0857 53.0123ZM36.7281 53.7642C36.9075 53.7326 37.087 53.6751 37.2606 53.5845C37.5101 54.394 38.2718 54.9992 39.1472 55.1171C40.4574 56.6181 41.7589 58.1076 43.0196 59.6488C42.5556 59.5928 42.0901 59.5367 41.6247 59.4792C40.8208 58.4886 39.9191 57.5684 39.0859 56.6023C38.282 55.6707 37.5058 54.716 36.7281 53.7628V53.7642ZM39.5616 55.1387C39.9628 55.1258 40.3422 55.0194 40.6924 54.8483C41.2833 55.7181 42.0172 56.5175 42.6898 57.3269C43.3916 58.1737 44.0876 59.0249 44.8026 59.8602C44.7588 59.8544 44.7135 59.8501 44.6698 59.8458C44.2248 59.794 43.7797 59.7423 43.3333 59.6876C42.2258 58.0831 40.9535 56.5132 39.5616 55.1387ZM40.936 54.7174C41.1666 54.5809 41.3825 54.4184 41.5853 54.2372C43.0998 56.3047 44.8376 58.4828 46.8584 60.0902C46.247 60.0241 45.6342 59.9551 45.0229 59.8846C44.3313 58.9673 43.6134 58.0673 42.9043 57.163C42.2652 56.3464 41.6495 55.4751 40.936 54.7174ZM41.7998 54.0331C41.8596 53.9741 41.918 53.9138 41.9734 53.8505C42.3572 54.3479 42.8897 54.6355 43.4515 54.7174C45.2096 56.4398 46.695 58.4225 48.3423 60.2484C47.8972 60.2024 47.4522 60.1549 47.0072 60.106C47.0174 60.0845 47.0174 60.0586 46.9955 60.0327C46.1522 59.0579 45.2053 58.1709 44.3546 57.2004C43.4602 56.1782 42.6169 55.1171 41.7998 54.0331ZM47.6302 54.6297C47.8549 54.5622 48.0621 54.4486 48.2343 54.2832C48.4517 55.1847 48.9667 56.089 49.813 56.4902C51.0167 57.9437 52.3065 59.3483 53.5876 60.7142C53.1761 60.684 52.7632 60.6524 52.3518 60.6193C50.7497 58.6324 49.117 56.7044 47.6288 54.6312L47.6302 54.6297ZM50.5367 56.6929C50.8971 56.7274 51.2195 56.6612 51.5113 56.5275C52.4816 57.9954 53.5599 59.5122 54.7811 60.7947C54.4441 60.7731 54.107 60.7501 53.77 60.7257C53.7729 60.7099 53.77 60.694 53.7583 60.6782C52.7209 59.3412 51.6529 57.9897 50.5352 56.6929H50.5367ZM51.7813 56.3823C51.9593 56.2687 52.1256 56.1322 52.2832 55.9798C53.573 57.6231 54.876 59.265 56.2066 60.8766C55.8039 60.8551 55.4027 60.8321 55 60.8062C53.9991 59.2937 52.8551 57.8459 51.7827 56.3809L51.7813 56.3823ZM52.505 55.7468C52.556 55.6893 52.6057 55.6318 52.6553 55.5729C52.9237 56.0473 53.3658 56.3406 53.8517 56.4456C54.4397 57.2205 55.1328 57.9351 55.7777 58.6611C56.4576 59.4274 57.1302 60.2038 57.8335 60.95C57.368 60.9327 56.9026 60.9097 56.4386 60.8867C55.248 59.1054 53.9086 57.3758 52.5064 55.7468H52.505ZM54.2719 56.4873C54.5754 56.4844 54.8818 56.4096 55.1634 56.2601C55.7908 57.0969 56.5014 57.8776 57.1784 58.6755C57.8364 59.4519 58.4711 60.2656 59.186 60.9931C58.8067 60.983 58.4273 60.9715 58.048 60.9586C57.4352 60.188 56.7873 59.4432 56.1512 58.6913C55.5325 57.9609 54.9343 57.1875 54.2704 56.4887L54.2719 56.4873ZM55.3677 56.1336C55.4173 56.0991 55.4654 56.0631 55.5121 56.0243C55.9265 56.8064 56.7144 57.1544 57.4819 57.1127C58.0772 57.9106 58.7148 58.6798 59.3363 59.4562C59.7142 59.9277 60.0892 60.4036 60.4773 60.8666C60.5211 60.9183 60.5576 60.973 60.597 61.019C60.1957 61.0147 59.7959 61.0075 59.3947 60.9988C58.8359 60.1995 58.172 59.4662 57.5475 58.7157C56.8297 57.8531 56.1366 56.9531 55.3662 56.1336H55.3677ZM57.7591 57.0825C58.0538 57.0307 58.3369 56.9215 58.5878 56.7547C59.8426 58.1665 61.0785 59.5899 62.307 61.0219C61.8532 61.0262 61.3994 61.0247 60.9457 61.0219V61.0089C60.953 60.9687 60.9092 60.9356 60.8713 60.9342C60.8538 60.9342 60.8377 60.9342 60.8202 60.9342C60.7677 60.9342 60.7545 60.9845 60.7735 61.0204C60.7706 61.0204 60.7691 61.0204 60.7662 61.0204C60.6013 60.8752 60.4321 60.4942 60.2906 60.3087C60.149 60.1247 60.006 59.9407 59.8631 59.7567C59.6048 59.426 59.348 59.0967 59.0897 58.7661C58.6491 58.2025 58.2143 57.6331 57.7591 57.0811V57.0825ZM58.7921 56.6009C59.0591 56.3723 59.2721 56.0689 59.3961 55.6951C60.0381 56.6296 60.8713 57.4707 61.6139 58.3276C62.3902 59.2233 63.1649 60.1247 63.9645 61.0003C63.6698 61.0046 63.375 61.0075 63.0803 61.0132C62.9067 61.0161 62.7345 61.0175 62.5609 61.019C61.3951 59.4806 60.1257 57.9983 58.7921 56.6009ZM59.6719 55.698C60.1199 55.8274 60.5911 55.7296 60.9209 55.4305C61.1018 56.4096 61.8007 57.2752 62.7389 57.6935C63.5632 58.7862 64.3657 59.8918 65.1799 60.9917C64.8443 60.9917 64.5102 60.9931 64.1731 60.9974C63.429 60.0701 62.6543 59.1629 61.8839 58.2571C61.1631 57.4103 60.4715 56.4787 59.6705 55.698H59.6719ZM63.2641 57.8732C63.5647 57.9466 63.8682 57.9753 64.1717 57.9638C64.5131 58.49 64.9143 58.986 65.2835 59.4907C65.6512 59.9939 65.9984 60.6049 66.4828 61.0075C66.1327 60.9974 65.7825 60.9945 65.4309 60.9917C64.7641 59.9162 64.0316 58.8825 63.2656 57.8732H63.2641ZM64.554 57.9279C64.8035 57.8905 65.05 57.8258 65.2879 57.7395C66.0378 58.8926 66.9089 60.0011 67.7858 61.0664C67.4035 61.042 67.0198 61.0233 66.6346 61.0118C66.6404 60.9988 66.6419 60.9816 66.6346 60.9629C66.3953 60.3317 65.8802 59.7739 65.4848 59.2261C65.1741 58.7977 64.8793 58.3491 64.5525 57.9293L64.554 57.9279ZM65.5403 57.636C65.7971 57.5224 66.0437 57.3815 66.2727 57.2176C67.2766 58.5634 68.3111 59.8976 69.3543 61.2145C68.9151 61.1584 68.473 61.1182 68.0309 61.0851C67.224 59.9263 66.4128 58.7474 65.5388 57.636H65.5403ZM66.4989 57.0466C66.5952 56.9675 66.6886 56.887 66.7776 56.7993C67.0227 57.0307 67.3203 57.1817 67.6355 57.255C68.6335 58.6712 69.7439 60.0054 70.7258 61.4359C70.345 61.3612 69.9642 61.2993 69.5804 61.2461C68.6306 59.8055 67.5917 58.3851 66.4974 57.0466H66.4989ZM68.0076 57.3053C68.3621 57.3183 68.7196 57.2363 69.0318 57.0595C70.0284 58.7071 71.2 60.3016 72.3702 61.8442C71.9062 61.7033 71.4378 61.5869 70.9695 61.4877C70.0838 60.0586 69.1398 58.5662 68.0076 57.3053ZM72.8021 62.4107C72.7948 62.589 72.7875 62.7672 72.7802 62.947C69.4914 62.4538 66.1181 62.4164 62.8002 62.3374C56.5641 62.1878 50.4083 61.9952 44.2394 60.9974C38.3841 60.0499 32.4822 58.8667 26.5219 59.403C26.5248 59.1744 26.5292 58.9458 26.5321 58.7172C29.9011 58.9185 33.2599 59.1327 36.6172 59.4849C42.646 60.119 48.6545 60.9917 54.7052 61.4028C57.7853 61.6113 60.8581 61.666 63.9441 61.5898C66.9337 61.515 69.8037 61.7263 72.7247 62.3115C72.751 62.3446 72.7758 62.3791 72.8021 62.4121V62.4107ZM72.767 63.2489C72.7262 64.2409 72.6853 65.2315 72.6357 66.2178C72.5993 66.9352 72.5613 67.6526 72.5219 68.3701C69.1544 68.2507 65.7869 68.1788 62.4237 67.9617C56.3613 67.5707 50.3251 66.8691 44.286 66.2307C38.3666 65.6053 32.3946 64.9598 26.4343 64.9008C26.4533 63.7737 26.4708 62.6465 26.4883 61.5193C26.4956 61.0319 26.5029 60.5431 26.5102 60.0557C29.8865 59.7509 33.2701 59.9838 36.6216 60.4309C39.6229 60.8321 42.6023 61.3856 45.5977 61.8299C48.5378 62.2669 51.4895 62.553 54.4601 62.6939C57.5723 62.842 60.6903 62.8794 63.8055 62.9311C66.7951 62.9815 69.7789 63.1468 72.767 63.2475V63.2489ZM72.503 68.7237C72.4825 69.1019 72.4621 69.48 72.4417 69.8567C69.0902 69.815 65.7912 69.6122 62.4529 69.2758C50.4594 68.0696 38.5008 66.0266 26.4183 65.9432C26.4212 65.8008 26.4227 65.6599 26.4256 65.5176C29.7391 65.6427 33.0439 65.8008 36.3487 66.0769C42.4053 66.583 48.4386 67.3191 54.4864 67.9071C60.4423 68.4865 66.5135 69.0846 72.503 68.7209V68.7237ZM35.2938 67.1595C36.4669 68.4563 37.7553 69.6597 38.9984 70.8889C40.1102 71.9888 41.2016 73.1433 42.3776 74.1828C41.6933 74.1123 41.0104 74.0433 40.3261 73.9772C39.2727 72.7867 38.1361 71.6624 37.0578 70.495C35.9548 69.2988 34.9203 68.0106 33.7705 66.8561C34.6781 66.9108 35.5842 66.9711 36.4902 67.0416C36.8258 67.0675 37.1614 67.0948 37.497 67.1236C39.6535 69.6237 41.8946 72.0851 44.2744 74.3812C44.2335 74.3769 44.1912 74.3725 44.1504 74.3682C43.663 74.3165 43.1757 74.2647 42.6884 74.2144C41.6028 72.978 40.3772 71.8378 39.2129 70.6762C37.9756 69.4412 36.7645 68.1616 35.4587 66.9956C35.3463 66.8964 35.1931 67.0473 35.2938 67.1581V67.1595ZM44.6844 68.163C46.7504 70.5223 48.8646 72.8471 51.0138 75.1345C50.5615 75.0828 50.1106 75.0325 49.6583 74.9807C49.1345 74.2633 48.4473 73.6364 47.8447 72.9837C47.21 72.2965 46.5797 71.6035 45.9552 70.9076C45.2986 70.1773 44.6493 69.4397 44.0059 68.6979C43.7958 68.4549 43.5171 67.9776 43.199 67.6728C44.2043 67.7806 45.2111 67.8927 46.2164 68.0077C47.3793 69.3736 48.5918 70.6992 49.8247 72.0061C50.9015 73.1462 51.9797 74.3179 53.1382 75.3833C52.5298 75.3114 51.9213 75.2409 51.3129 75.1705C49.2133 72.735 47.0685 70.3311 44.8813 67.9718C44.7602 67.841 44.5706 68.0336 44.6858 68.1645L44.6844 68.163ZM58.9905 75.9152C57.8933 74.6558 56.7173 73.4567 55.5676 72.2462C54.4528 71.073 53.3819 69.8193 52.1942 68.7165C52.6553 68.7726 53.1178 68.8273 53.5788 68.8833C53.5818 68.9063 53.5891 68.9308 53.6066 68.9523C55.6639 71.5532 58.0699 74.0232 60.5342 76.2632C59.3816 76.1251 58.2289 75.9871 57.0748 75.8491C54.8745 73.3101 52.5633 70.8012 50.134 68.4693C50.7162 68.5397 51.2983 68.6087 51.8805 68.6792C51.8674 68.7194 51.8703 68.7669 51.9068 68.81C52.9733 70.0838 54.215 71.2426 55.3691 72.4417C56.5276 73.6451 57.6701 74.8714 58.8796 76.0259C58.9526 76.0964 59.0547 75.9914 58.9905 75.9167V75.9152ZM56.8209 75.8175C56.3905 75.7657 55.9615 75.7154 55.5311 75.6651C54.3799 74.4416 53.1893 73.254 52.0366 72.0319C51.4355 71.395 50.8358 70.7567 50.242 70.1126C49.6846 69.5087 49.152 68.8301 48.5334 68.278C48.9361 68.3255 49.3388 68.3729 49.7415 68.4218C52.0614 70.9191 54.4528 73.3647 56.8209 75.8175ZM55.232 75.6291C54.6396 75.5587 54.0472 75.4897 53.4548 75.4192C52.3445 74.1885 51.1495 73.0225 50.0202 71.8105C48.8646 70.5712 47.7338 69.3103 46.6016 68.0509C47.1356 68.1127 47.6682 68.1745 48.2022 68.2378C48.6793 68.9566 49.3505 69.5849 49.9399 70.2161C50.5367 70.8573 51.1378 71.4942 51.7448 72.1254C52.8872 73.3086 54.0312 74.5005 55.2334 75.6277L55.232 75.6291ZM49.4117 74.952C48.8923 74.893 48.3714 74.8341 47.8505 74.7766C46.7008 73.4538 45.4898 72.1786 44.3021 70.8904C43.2662 69.7661 42.2725 68.5411 41.1739 67.4628C41.6291 67.5089 42.0843 67.5549 42.541 67.6023C42.5468 67.644 42.5687 67.6756 42.6183 67.726C42.6533 67.7605 42.7132 67.7691 42.7555 67.7432C42.7686 67.7346 42.7832 67.726 42.7963 67.7173C42.8109 67.7087 42.8211 67.6986 42.8284 67.6871C43.0356 67.9603 43.4588 68.4951 43.5302 68.5771C43.8367 68.9293 44.146 69.2816 44.4553 69.6324C45.0127 70.2635 45.5759 70.8889 46.1434 71.5115C47.1794 72.6473 48.208 73.97 49.4132 74.9534L49.4117 74.952ZM47.6113 74.7492C46.5914 74.6342 45.5715 74.5221 44.5516 74.4128C42.3207 71.9946 40.0635 69.6051 37.8661 67.1552C38.1813 67.1825 38.495 67.2098 38.8102 67.2371C41.1666 69.6971 43.6616 72.0578 46.1551 74.3797C46.2193 74.4401 46.3141 74.3467 46.2529 74.2834C43.9475 71.9054 41.6043 69.5245 39.1691 67.2702C39.6987 67.3191 40.2284 67.368 40.7566 67.4197C41.7648 68.6547 42.9583 69.7819 44.0409 70.945C45.2242 72.216 46.3929 73.507 47.6098 74.7478L47.6113 74.7492ZM40.0402 73.9499C39.5032 73.8981 38.9663 73.8492 38.4293 73.8018C38.425 73.7903 38.4191 73.7802 38.4104 73.7687C37.2606 72.5395 36.0642 71.3505 34.9072 70.1269C33.8771 69.0372 32.9228 67.7907 31.8256 66.7541C32.3538 66.7785 32.882 66.8058 33.4102 66.836C34.3994 68.1716 35.6206 69.388 36.7587 70.6C37.8238 71.7343 38.889 72.8974 40.0416 73.9513L40.0402 73.9499ZM72.4271 70.1442C72.4008 70.6302 72.3775 71.1161 72.3527 71.6021C72.0244 71.1521 71.68 70.7049 71.3138 70.2952C71.6873 70.2578 72.0594 70.2089 72.4271 70.1442ZM72.3337 71.973C72.3177 72.3037 72.2987 72.6358 72.2826 72.9665C72.2797 72.9823 72.2783 72.9966 72.2797 73.0125C72.2739 73.1189 72.2695 73.2238 72.2651 73.3302C71.842 72.8514 71.4174 72.3756 71.0016 71.891C70.5814 71.4008 70.1976 70.8703 69.776 70.3786C70.1903 70.3714 70.6032 70.3541 71.0132 70.321C71.4028 70.8947 71.8668 71.4468 72.3322 71.973H72.3337ZM72.2549 73.553C72.2316 74.0577 72.2111 74.5623 72.1893 75.067C70.8732 73.4308 69.4637 71.8292 67.9725 70.344C68.4584 70.3685 68.9443 70.3814 69.4287 70.3814C70.1947 71.5287 71.2423 72.6027 72.2549 73.553ZM72.1805 75.2697C72.1615 75.7355 72.144 76.2013 72.1294 76.6686C70.1407 74.4574 68.0426 72.331 65.9649 70.1988C66.4989 70.2463 67.0344 70.2894 67.5713 70.321C69.1223 71.96 70.6689 73.5933 72.1805 75.2697ZM72.1221 76.8842C72.1119 77.179 72.1032 77.4737 72.0944 77.7685C71.8551 77.7196 71.6158 77.6721 71.3766 77.6276C70.2385 76.2632 68.9764 74.9879 67.7362 73.7155C66.512 72.4604 65.2762 71.2067 63.9878 70.0134C64.4708 70.0579 64.9581 70.1054 65.4484 70.1514C67.6443 72.4144 69.8256 74.7061 72.1134 76.8785C72.1163 76.8814 72.1178 76.8814 72.1207 76.8828L72.1221 76.8842ZM71.0643 77.57C70.4194 77.4536 69.7701 77.3544 69.1194 77.2624C68.8261 77.0395 68.5635 76.7304 68.3256 76.5061C67.9638 76.164 67.6034 75.8203 67.2445 75.4753C66.5923 74.847 65.9488 74.2115 65.3141 73.566C64.1075 72.3382 62.9577 71.0615 61.7876 69.8006C62.3624 69.8581 62.9388 69.9156 63.5136 69.9702C64.8458 71.2929 66.21 72.5855 67.5305 73.9211C68.7211 75.1245 69.862 76.3796 71.0643 77.5729V77.57ZM68.6248 77.1934C68.028 77.1129 67.4298 77.041 66.8301 76.9734C64.4489 74.4603 62.0152 71.9485 59.4997 69.5605C60.1082 69.6266 60.7151 69.6899 61.3236 69.7531C62.6499 71.3289 64.106 72.8112 65.5709 74.2618C66.3107 74.9936 67.0606 75.7183 67.8281 76.4213C68.0732 76.6456 68.3344 76.9432 68.6233 77.1934H68.6248ZM66.5295 76.9389C65.9678 76.8756 65.406 76.8152 64.8443 76.7549C62.2443 74.4171 59.7595 72.0535 57.5533 69.3434C58.0217 69.3966 58.4915 69.4498 58.9599 69.5015C61.3907 72.0535 63.9572 74.5235 66.5295 76.9389ZM64.5277 76.7203C63.7967 76.6413 63.0657 76.5622 62.3391 76.4759C60.292 74.0102 58.2143 71.5445 56.0549 69.1723C56.4269 69.2154 56.799 69.26 57.1711 69.3017C59.313 72.0032 61.7569 74.6227 64.5262 76.7218L64.5277 76.7203ZM62.1261 76.4501C61.6825 76.3969 61.239 76.3437 60.7954 76.2905C59.634 75.0684 58.4492 73.8708 57.298 72.6387C56.1585 71.418 55.0773 70.1428 53.9392 68.9221C54.2092 68.9538 54.4776 68.9868 54.7476 69.0185C55.0204 69.0515 55.2933 69.0817 55.5676 69.1134C55.5705 69.1162 55.5719 69.1205 55.5749 69.1234C57.6803 71.6222 59.901 74.0519 62.1261 76.4486V76.4501ZM61.6431 77.1085C59.4151 77.8461 57.1886 78.5851 54.9606 79.3226C56.4663 78.4988 57.9706 77.6736 59.4764 76.8497C60.1986 76.936 60.9209 77.0223 61.6446 77.1085H61.6431ZM58.099 76.6873C55.8375 77.5125 53.5759 78.3364 51.3158 79.1616C52.8741 78.1782 54.5316 77.3486 56.1847 76.5291C56.2168 76.5133 56.2416 76.4932 56.2635 76.4702C56.8749 76.5421 57.4877 76.6154 58.099 76.6873ZM54.981 76.3178C53.3104 76.9504 51.6397 77.5844 49.9691 78.217C51.1495 77.5585 52.3299 76.9015 53.5088 76.243C53.5511 76.22 53.5832 76.1898 53.6066 76.1553C53.7992 76.1783 53.9918 76.1999 54.1844 76.2229C54.4499 76.2545 54.714 76.2862 54.9796 76.3163L54.981 76.3178ZM52.2847 76C50.3412 76.6686 48.4035 77.3544 46.4717 78.056C47.6798 77.3573 48.8879 76.6571 50.0961 75.9584C50.1763 75.9109 50.2215 75.839 50.2376 75.7614C50.9204 75.8405 51.6018 75.921 52.2847 76ZM35.8176 75.3531C36.0832 75.1417 36.3516 74.9318 36.623 74.7277C36.7456 74.6357 36.7864 74.5034 36.766 74.3869C37.4168 74.4387 38.0675 74.4933 38.7182 74.5508C37.7421 74.7852 36.7748 75.0526 35.8176 75.3545V75.3531ZM34.9378 73.5214C34.9407 73.5027 34.9378 73.4826 34.9203 73.4639C33.7793 72.1728 32.4953 70.9881 31.2697 69.7761C30.2206 68.7381 29.2051 67.6124 28.0977 66.6247C28.5981 66.6362 29.1001 66.6491 29.6005 66.6649C29.6589 66.7339 29.7056 66.7871 29.7129 66.7943C29.8792 66.9668 30.047 67.1394 30.2148 67.3105C30.4833 67.5851 30.7517 67.8597 31.0217 68.1328C31.5951 68.7137 32.1729 69.2902 32.7477 69.8682C33.931 71.0586 35.1012 72.2692 36.3283 73.4165C36.3939 73.4768 36.4859 73.3848 36.426 73.3201C35.1698 71.9356 33.8333 70.6158 32.526 69.2787C31.8883 68.6274 31.2507 67.9747 30.6087 67.3263C30.4658 67.1811 30.2702 66.9151 30.0543 66.6793C30.5124 66.6951 30.9706 66.7124 31.4287 66.7325C32.3246 67.9905 33.5502 69.1076 34.611 70.2218C35.7636 71.4338 36.9338 72.6458 38.1725 73.7745C37.0943 73.6796 36.016 73.5947 34.9378 73.5214ZM34.7685 73.5099C34.2243 73.4725 33.6801 73.4409 33.1358 73.4093C33.1344 73.4078 33.1344 73.405 33.1315 73.4035C30.9764 71.1204 28.5471 69.1004 26.481 66.7296C26.4577 66.7023 26.43 66.6922 26.4022 66.6951C26.4022 66.662 26.4023 66.6304 26.4037 66.5973C26.8152 66.6017 27.2252 66.6088 27.6352 66.616C28.693 67.8007 29.9317 68.8689 31.0654 69.9746C32.2823 71.1607 33.4729 72.4014 34.7656 73.5085L34.7685 73.5099ZM28.407 73.2411C27.6979 73.231 26.9873 73.2281 26.2782 73.2353C26.2914 72.6185 26.3045 72.0032 26.3162 71.3864C26.5846 71.6725 26.9071 71.9184 27.1989 72.1757C27.6001 72.5323 27.9985 72.8931 28.4085 73.2396L28.407 73.2411ZM17.302 68.36C19.4192 65.7707 22.5153 64.3056 25.7428 63.558C25.7355 64.0497 25.7282 64.5414 25.7209 65.0331C25.6698 65.1237 25.6698 65.2401 25.7165 65.335C25.6786 68.0077 25.645 70.6805 25.6231 73.3532C25.6231 73.4121 25.6362 73.4625 25.6581 73.5042C25.6144 73.7026 25.7238 73.9369 25.9893 73.9355C29.1905 73.9154 32.3932 74.0591 35.5856 74.2949C34.9261 74.4257 34.2666 74.5566 33.6071 74.6874C33.1971 74.7679 33.3722 75.3847 33.7793 75.3042C34.2506 75.2122 34.7219 75.1187 35.1931 75.0267C34.805 75.3387 34.4227 75.6564 34.0463 75.9828C33.807 76.1913 34.0594 76.6312 34.3644 76.5205C35.6323 76.0662 36.9178 75.6722 38.2207 75.3373C37.4926 75.8419 36.766 76.3451 36.0379 76.8497C35.7563 77.0453 35.9212 77.5744 36.2889 77.4378C37.4255 77.0136 38.5709 76.6154 39.7235 76.2402L37.7947 77.4536C37.4941 77.6434 37.6852 78.1609 38.0456 78.0402C39.5018 77.5542 40.9579 77.0683 42.4155 76.5809C41.2891 77.2998 40.1642 78.0172 39.0378 78.736C38.743 78.9244 38.9327 79.4635 39.2887 79.3212C40.6851 78.7662 42.0814 78.2098 43.4777 77.6534C42.9189 77.987 42.3601 78.322 41.8013 78.6555C41.4978 78.8367 41.7035 79.3816 42.0508 79.2392C43.288 78.7346 44.5253 78.23 45.7626 77.7253C44.8215 78.2702 43.8804 78.8151 42.9393 79.36C42.6315 79.5383 42.8401 80.0731 43.1888 79.9423C45.4548 79.094 47.7294 78.2688 50.0129 77.4636C48.637 78.2314 47.2611 78.9991 45.8852 79.7669C45.5744 79.9394 45.7889 80.4742 46.1318 80.3448C47.9337 79.6605 49.7357 78.9761 51.5391 78.2932C50.6534 78.8266 49.7926 79.4017 48.974 80.0429C48.7289 80.2356 48.9945 80.6698 49.2819 80.5648C51.38 79.7985 53.4796 79.0336 55.5792 78.2688C54.2573 78.992 52.9354 79.7151 51.6149 80.4383C51.3027 80.6094 51.5172 81.1241 51.8601 81.0105C54.1508 80.2514 56.4415 79.4894 58.7323 78.7288C57.7255 79.2867 56.7188 79.846 55.7105 80.4038C55.4071 80.572 55.6157 81.0882 55.9513 80.9659C57.9517 80.2327 59.9681 79.544 61.9991 78.8956C61.6708 79.1444 61.3411 79.3931 61.0128 79.6418C60.7648 79.8301 60.8975 80.3377 61.2506 80.1968C62.555 79.672 63.8872 79.2306 65.2441 78.8697C65.1069 79.0638 65.3375 79.3844 65.5811 79.3025C65.9795 79.1674 66.3792 79.0451 66.7805 78.9287C66.7659 79.094 66.9235 79.2637 67.1029 79.1443C67.4692 78.9014 67.8442 78.6929 68.2527 78.5247C68.5664 78.3953 68.457 77.9467 68.1097 78.0143C67.6632 78.102 67.2197 78.2084 66.7819 78.3292C66.8345 78.1322 66.6886 77.9122 66.4259 77.9697C65.2572 78.2228 64.1075 78.5405 62.9767 78.9186C63.2306 78.7274 63.483 78.5362 63.7369 78.3435C63.9937 78.1494 63.8609 77.6764 63.499 77.7871C62.0662 78.2256 60.6407 78.6872 59.2211 79.1674C60.133 78.6627 61.0449 78.1581 61.9568 77.652C62.1582 77.5399 62.1377 77.2839 62.0035 77.1531C62.4106 77.202 62.8162 77.2494 63.2233 77.2983C66.2217 77.6549 69.2478 78.1538 72.2695 78.2328C72.3658 78.2357 72.4315 78.1782 72.4606 78.1049C72.5584 78.0704 72.6416 77.9884 72.6518 77.8576C72.8736 75.0698 73.0195 72.2749 73.1625 69.48C74.4902 70.0694 75.7873 70.6949 76.7591 71.8033C77.8519 73.0513 78.4195 74.7967 78.0314 76.4271C77.2114 79.8733 73.2106 80.9588 70.1962 81.7006C69.8533 81.7854 69.9992 82.3059 70.3421 82.2225C73.6833 81.403 78.0635 80.0631 78.65 76.1237C79.1373 72.8514 76.4089 69.6841 73.1785 69.191C73.2267 68.2464 73.2748 67.3018 73.3259 66.3572C73.3507 65.8914 73.3784 65.4242 73.4076 64.9555C77.2143 66.3299 81.4266 67.2429 83.7888 70.8257C85.9512 74.1066 85.0334 78.2141 82.6274 81.1083C80.3075 83.9003 76.7999 85.3251 73.2981 86.0555C69.2945 86.8894 65.1215 87.0073 61.0434 87.0029C56.7071 86.9986 52.3751 86.7485 48.0475 86.4997C43.8906 86.2596 39.7308 86.0109 35.5944 85.5408C31.4273 85.0663 27.2806 84.3532 23.2507 83.193C21.3772 82.6538 19.3958 82.0687 17.874 80.8107C16.7345 79.869 15.9437 78.5923 15.5088 77.1991C14.559 74.1612 15.2914 70.8199 17.3035 68.36H17.302Z" fill="#01205F"/>
<path d="M23.8781 67.6C24.2067 67.3539 24.5063 67.909 24.1922 68.155C23.0026 69.091 21.9889 70.3766 21.6384 71.9037C21.2661 73.5283 21.8726 75.0298 23.0491 76.1219C24.1718 77.1629 25.6043 77.8065 26.9772 78.4095C28.6031 79.1235 30.2697 79.7371 31.964 80.2516C35.4442 81.3092 39.0203 81.8462 42.611 82.3232C46.1275 82.7897 49.6528 83.2188 53.1969 83.3958C57.1948 83.5953 61.1549 83.3568 65.1208 82.8227C65.3142 82.7972 65.352 83.1257 65.1673 83.1722C61.405 84.1218 57.4711 84.1983 53.6158 84.0348C49.6542 83.8653 45.7131 83.3718 41.7835 82.8482C38.0038 82.3442 34.256 81.7127 30.6202 80.5036C28.8765 79.9246 27.159 79.2435 25.4967 78.4485C24.1907 77.823 22.8688 77.0594 21.9453 75.8924C19.7333 73.1007 21.3621 69.4826 23.8781 67.6Z" fill="#01205F"/>
</svg>
