<svg width="100" height="101" viewBox="0 0 100 101" fill="none" xmlns="http://www.w3.org/2000/svg">
<path d="M0 50.4416C0.116856 22.5974 22.5167 0.423523 50.1313 0.500198C77.8883 0.576874 100.106 22.9771 99.9996 50.6826C99.8901 78.5012 77.4281 100.576 49.8866 100.5C22.1223 100.419 0.0328658 78.0375 0 50.4416ZM49.9706 1.06979C22.6591 1.15012 0.56237 23.3313 0.573325 50.5183C0.584281 77.4643 22.5751 99.9777 50.0728 99.9339C77.7312 99.8864 99.4774 77.1795 99.4446 50.4489C99.4117 23.6197 77.5413 1.03328 49.9706 1.06979Z" fill="#01205F"/>
<path d="M34.9765 63.6882C34.8925 63.973 34.7391 64.4039 34.6515 64.5901C34.4835 64.6266 34.0197 64.7325 33.5706 64.7325C32.1281 64.7325 31.4197 63.7795 31.4197 62.7608C31.4197 61.5523 32.3399 60.7198 33.6801 60.7198C34.1877 60.7198 34.6113 60.8293 34.7975 60.8585C34.8231 61.1251 34.8633 61.4939 34.9108 61.7859L34.7172 61.8261C34.5967 61.4172 34.4506 61.1798 34.1475 61.0557C33.9942 60.9863 33.7605 60.9498 33.545 60.9498C32.5919 60.9498 32.0916 61.6691 32.0916 62.6367C32.0916 63.7649 32.6759 64.4988 33.6071 64.4988C34.1914 64.4988 34.4908 64.225 34.7975 63.6225L34.9838 63.6882H34.9765Z" fill="#01205F"/>
<path d="M37.3647 64.7179C37.2625 64.7179 37.1347 64.6704 37.0726 64.6047C36.9959 64.528 36.9594 64.4477 36.9302 64.3491C36.6964 64.5061 36.408 64.7215 36.2363 64.7215C35.8018 64.7215 35.5023 64.3637 35.5023 63.9876C35.5023 63.6955 35.6593 63.513 35.9807 63.3998C36.3386 63.2756 36.7877 63.1223 36.9155 63.0164V62.874C36.9155 62.476 36.722 62.246 36.4226 62.246C36.2947 62.246 36.2108 62.3081 36.1523 62.3774C36.0866 62.4614 36.0464 62.5892 35.9953 62.7608C35.9624 62.8667 35.904 62.9069 35.8091 62.9069C35.6886 62.9069 35.5315 62.7864 35.5315 62.6403C35.5315 62.5527 35.6082 62.4797 35.7287 62.3957C35.9186 62.2606 36.2619 62.0525 36.5978 61.9795C36.7841 61.9795 36.9703 62.0342 37.1127 62.1401C37.3282 62.319 37.4195 62.5271 37.4195 62.8338V63.9511C37.4195 64.225 37.5181 64.3053 37.624 64.3053C37.6934 64.3053 37.7664 64.2761 37.8321 64.2432L37.8942 64.4148L37.3684 64.7179H37.3647ZM36.9119 63.2245C36.7877 63.2866 36.5358 63.3998 36.4007 63.4619C36.1852 63.5604 36.0537 63.6736 36.0537 63.889C36.0537 64.2067 36.2874 64.3418 36.4664 64.3418C36.6088 64.3418 36.795 64.2651 36.9119 64.1519V63.2282V63.2245Z" fill="#01205F"/>
<path d="M41.0347 64.6448C40.6915 64.6448 40.3336 64.6485 40.1912 64.6558C40.1583 64.6156 39.2673 63.5166 39.2344 63.4801C39.1577 63.3888 39.1212 63.3596 39.0737 63.3596C39.0518 63.3596 39.008 63.3596 38.9788 63.3669V64.0168C38.9788 64.4112 39.008 64.4331 39.3805 64.4696V64.6412H38.0476V64.4696C38.4274 64.4331 38.4566 64.3966 38.4566 64.0168V61.2164C38.4566 60.8439 38.4164 60.8293 38.0622 60.7746V60.6139C38.3799 60.5847 38.7414 60.5007 38.9788 60.4131V63.2063C39.1468 63.1661 39.26 63.0894 39.3476 62.9945C39.4864 62.8558 39.7055 62.5929 39.7968 62.4505C39.91 62.2862 39.8552 62.2387 39.585 62.2131V62.0415L40.8083 61.9904V62.1547C40.403 62.2204 40.2715 62.2716 40.0269 62.5271C39.9173 62.6403 39.6763 62.9178 39.5448 63.0748C39.669 63.2537 40.2606 63.9475 40.4505 64.1556C40.717 64.4258 40.7974 64.4513 41.0311 64.4659V64.6375L41.0347 64.6448Z" fill="#01205F"/>
<path d="M43.2805 64.1301C42.9043 64.612 42.4807 64.7179 42.2835 64.7179C41.5495 64.7179 41.1113 64.1301 41.1113 63.4436C41.1113 63.0383 41.2611 62.6623 41.5057 62.403C41.7577 62.1292 42.0827 61.9758 42.3931 61.9758C42.9189 61.9758 43.3097 62.4249 43.3097 62.8996C43.306 63.0128 43.2878 63.0748 43.2001 63.1004C43.0833 63.126 42.3128 63.1771 41.6335 63.199C41.6226 63.9621 42.0827 64.2834 42.5026 64.2834C42.7437 64.2834 42.9664 64.1848 43.1855 63.9877L43.2805 64.1264V64.1301ZM42.2543 62.2059C41.9877 62.2059 41.7358 62.4651 41.6591 62.9398C41.9731 62.9398 42.2872 62.9398 42.6158 62.9215C42.7181 62.9215 42.7546 62.8959 42.7546 62.8047C42.7619 62.4943 42.5684 62.2059 42.2543 62.2059Z" fill="#01205F"/>
<path d="M49.0869 62.3081C48.6779 62.3519 48.6086 62.4542 48.4114 62.7389C48.2543 62.9617 48.0937 63.1954 47.8855 63.5021C48.163 63.7649 48.7108 64.3747 48.9007 64.685L48.8678 64.7508C48.4953 64.7289 48.1594 64.5901 48.0863 64.5134C48.0133 64.4331 47.7467 64.1739 47.5532 63.9694C47.1332 64.5244 46.7498 64.7216 46.3226 64.7216C45.5484 64.7216 45.1321 64.1593 45.1321 63.6481C45.1357 63.1077 45.4425 62.8923 46.0122 62.5345C45.7383 62.2935 45.5593 62.0233 45.5593 61.6947C45.563 61.1616 46.0085 60.7527 46.5563 60.7527C47.0675 60.7527 47.4583 61.0959 47.4583 61.5742C47.4546 61.8115 47.3377 61.9868 47.2026 62.0963C47.0858 62.1876 46.9105 62.2971 46.6987 62.4213C46.8886 62.5819 47.3487 62.969 47.7321 63.345C47.8599 63.1442 47.9804 62.9544 48.0863 62.7024C48.1996 62.4322 48.1594 62.3519 47.7285 62.3081V62.1255H49.0833V62.3081H49.0869ZM46.4905 64.2944C46.874 64.2944 47.1113 64.1593 47.3962 63.8015C47.0675 63.4436 46.6804 63.1114 46.1728 62.6805C45.793 62.9398 45.6835 63.1807 45.6835 63.4765C45.6835 64.0315 46.1034 64.2944 46.4905 64.2944ZM46.4978 60.9645C46.213 60.9645 46.0341 61.1945 46.0341 61.5267C46.0341 61.8261 46.1838 62.0087 46.5453 62.2971C46.8521 62.0744 46.9908 61.8882 46.9908 61.5779C46.9872 61.2419 46.8192 60.9645 46.4978 60.9645Z" fill="#01205F"/>
<path d="M52.5013 60.8074C53.3192 60.8074 53.8524 60.9717 54.2212 61.3223C54.5134 61.6034 54.7288 62.0196 54.7288 62.5892C54.7288 63.2793 54.444 63.8306 53.9912 64.1739C53.5457 64.5098 52.9723 64.6449 52.2566 64.6449H50.8324V64.4696C51.329 64.4258 51.3583 64.382 51.3583 63.8964V61.5596C51.3583 61.0521 51.2889 61.0265 50.8324 60.9827V60.8074H52.5049H52.5013ZM51.9243 63.8525C51.9243 64.2907 52.0996 64.4185 52.5378 64.4185C53.553 64.4185 54.0825 63.7211 54.0825 62.6732C54.0825 62.0452 53.8743 61.5559 53.4434 61.2748C53.1768 61.0886 52.8409 61.0229 52.4428 61.0229C52.1872 61.0229 52.0521 61.0594 51.9973 61.1068C51.9425 61.147 51.9243 61.2164 51.9243 61.4354V63.8525Z" fill="#01205F"/>
<path d="M57.4201 64.1301C57.044 64.612 56.6204 64.7179 56.4232 64.7179C55.6892 64.7179 55.251 64.1301 55.251 63.4436C55.251 63.0383 55.4007 62.6623 55.6454 62.403C55.8973 62.1292 56.2223 61.9758 56.5327 61.9758C57.0586 61.9758 57.4493 62.4249 57.4493 62.8996C57.4457 63.0128 57.4274 63.0748 57.3398 63.1004C57.2229 63.126 56.4524 63.1771 55.7732 63.199C55.7622 63.9621 56.2223 64.2834 56.6423 64.2834C56.8833 64.2834 57.1061 64.1848 57.3252 63.9877L57.4201 64.1264V64.1301ZM56.394 62.2059C56.1274 62.2059 55.8754 62.4651 55.7987 62.9398C56.1128 62.9398 56.4268 62.9398 56.7555 62.9215C56.8577 62.9215 56.8943 62.8959 56.8943 62.8047C56.9016 62.4943 56.708 62.2059 56.394 62.2059Z" fill="#01205F"/>
<path d="M59.3592 62.7608C59.246 62.4067 59.0817 62.1766 58.7384 62.1766C58.5376 62.1766 58.3806 62.319 58.3806 62.5491C58.3806 62.7937 58.5485 62.9105 58.8735 63.0602C59.3775 63.2976 59.6441 63.4801 59.6441 63.8818C59.6441 64.4331 59.1365 64.7142 58.6617 64.7142C58.355 64.7142 58.0738 64.6157 57.9497 64.5463C57.9204 64.382 57.8693 64.0424 57.8438 63.8453L58.019 63.816C58.1286 64.1921 58.3404 64.5061 58.7494 64.5061C58.9721 64.5061 59.1474 64.3564 59.1474 64.1227C59.1474 63.8708 59.0014 63.7357 58.6763 63.5787C58.2674 63.3815 57.9241 63.188 57.9241 62.7499C57.9241 62.3117 58.2929 61.9758 58.8626 61.9758C59.1182 61.9758 59.3227 62.0343 59.4432 62.0562C59.4615 62.2022 59.5053 62.5746 59.5345 62.7207L59.3592 62.7645V62.7608Z" fill="#01205F"/>
<path d="M61.5868 62.7608C61.4736 62.4067 61.3092 62.1766 60.966 62.1766C60.7651 62.1766 60.6081 62.319 60.6081 62.5491C60.6081 62.7937 60.7761 62.9105 61.1011 63.0602C61.605 63.2976 61.8716 63.4801 61.8716 63.8818C61.8716 64.4331 61.364 64.7142 60.8893 64.7142C60.5825 64.7142 60.3013 64.6157 60.1772 64.5463C60.148 64.382 60.0969 64.0424 60.0713 63.8453L60.2466 63.816C60.3561 64.1921 60.5679 64.5061 60.9769 64.5061C61.1997 64.5061 61.375 64.3564 61.375 64.1227C61.375 63.8708 61.2289 63.7357 60.9039 63.5787C60.4949 63.3815 60.1516 63.188 60.1516 62.7499C60.1516 62.3117 60.5205 61.9758 61.0901 61.9758C61.3457 61.9758 61.5503 62.0343 61.6708 62.0562C61.689 62.2022 61.7328 62.5746 61.7621 62.7207L61.5868 62.7645V62.7608Z" fill="#01205F"/>
<path d="M64.479 64.1301C64.1028 64.612 63.6792 64.7179 63.482 64.7179C62.748 64.7179 62.3098 64.1301 62.3098 63.4436C62.3098 63.0383 62.4595 62.6623 62.7042 62.403C62.9562 62.1292 63.2812 61.9758 63.5916 61.9758C64.1174 61.9758 64.5082 62.4249 64.5082 62.8996C64.5045 63.0128 64.4863 63.0748 64.3986 63.1004C64.2818 63.126 63.5112 63.1771 62.832 63.199C62.8211 63.9621 63.2812 64.2834 63.7011 64.2834C63.9421 64.2834 64.1649 64.1848 64.384 63.9877L64.479 64.1264V64.1301ZM63.4528 62.2059C63.1862 62.2059 62.9343 62.4651 62.8576 62.9398C63.1716 62.9398 63.4857 62.9398 63.8143 62.9215C63.9166 62.9215 63.9531 62.8959 63.9531 62.8047C63.9604 62.4943 63.7669 62.2059 63.4528 62.2059Z" fill="#01205F"/>
<path d="M66.2502 64.6449H64.8552V64.4733C65.2167 64.4367 65.2496 64.4075 65.2496 64.0315V62.79C65.2496 62.4176 65.2277 62.3957 64.8954 62.3519V62.1985C65.1985 62.1511 65.476 62.0817 65.7682 61.9612V62.6075C65.9873 62.2825 66.2283 61.9758 66.5131 61.9758C66.7322 61.9758 66.8637 62.1146 66.8637 62.2716C66.8637 62.4286 66.7505 62.571 66.6446 62.6294C66.5825 62.6659 66.5314 62.6549 66.4839 62.6148C66.3926 62.5271 66.3196 62.4614 66.2173 62.4614C66.1005 62.4614 65.8923 62.6257 65.7682 62.9142V64.0278C65.7682 64.4112 65.801 64.4367 66.2465 64.4769V64.6485L66.2502 64.6449Z" fill="#01205F"/>
<path d="M68.3936 64.6412C68.295 64.6923 68.2 64.7142 68.1416 64.7142C67.7509 64.7142 67.5354 64.4878 67.5354 64.0022V62.2971H67.1337L67.1082 62.2277L67.2688 62.0452H67.5354V61.5486C67.6632 61.4245 67.8568 61.2675 67.9846 61.1433L68.0722 61.1616C68.0613 61.3952 68.054 61.7312 68.054 62.0415H68.7113C68.7661 62.0999 68.7441 62.2387 68.6748 62.2934H68.054V63.7941C68.054 64.2688 68.2438 64.3527 68.3899 64.3527C68.525 64.3527 68.6492 64.3053 68.7368 64.2651L68.7916 64.4294L68.3936 64.6375V64.6412Z" fill="#01205F"/>
<path d="M20.7638 42.7485C20.5009 43.0515 20.1832 43.4349 19.8071 43.8986C19.4309 44.3623 19.011 44.8881 18.5472 45.4796C18.0834 46.0711 17.616 46.6809 17.1522 47.3162C16.652 47.9843 16.1626 48.6635 15.6842 49.3426C15.2059 50.0254 14.7677 50.6388 14.3696 51.1865C13.9716 51.7341 13.6137 52.1832 13.3033 52.5301C12.9929 52.877 12.7592 53.0522 12.6058 53.0522C12.5474 53.0522 12.5036 53.023 12.4817 52.961C12.4561 52.8989 12.4451 52.8222 12.4451 52.7236C12.4451 52.5046 12.4999 52.1979 12.6168 51.7999C12.73 51.4055 12.8833 50.9674 13.0805 50.4854C13.2777 50.0035 13.5151 49.4959 13.7963 48.9592C14.0775 48.4225 14.3769 47.9004 14.6983 47.3892C15.6295 45.9762 16.4036 44.8187 17.0244 43.9169C17.6452 43.015 18.0433 42.4308 18.2222 42.1643C18.1163 42.2848 17.9009 42.5367 17.5795 42.9128C17.2581 43.2889 16.882 43.7343 16.4511 44.2455C16.0202 44.7567 15.5637 45.3043 15.0817 45.8885C14.5997 46.4727 14.1432 47.0277 13.7123 47.5498C13.128 48.2691 12.5693 48.9592 12.0398 49.6237C11.5103 50.2883 10.9771 50.8725 10.4476 51.3763C9.91812 51.8802 9.36671 52.2855 8.80069 52.5922C8.23466 52.8952 7.62117 53.0486 6.96751 53.0486C6.51469 53.0486 6.1276 53.0048 5.81355 52.9098C5.49585 52.8186 5.24023 52.6981 5.04303 52.5447C4.84584 52.3914 4.69977 52.2234 4.60482 52.0335C4.50987 51.8437 4.4624 51.6575 4.4624 51.4749C4.4624 51.2193 4.52083 51.0149 4.64134 50.8615C4.76185 50.7082 4.91522 50.6315 5.10511 50.6315C5.27309 50.6315 5.40455 50.6862 5.4995 50.7958C5.59445 50.9053 5.64192 51.0258 5.64192 51.1609C5.64192 51.3179 5.59445 51.4457 5.4995 51.5443C5.40455 51.6429 5.27309 51.6903 5.10511 51.6903C4.9846 51.6903 4.89696 51.6648 4.83853 51.6173C4.7801 51.5698 4.71803 51.4968 4.6596 51.3982C4.6596 51.7634 4.85314 52.0956 5.24023 52.395C5.62731 52.6944 6.26272 52.8441 7.14644 52.8441C7.73072 52.8441 8.31135 52.6652 8.89198 52.3037C9.46896 51.9459 10.0313 51.4895 10.5754 50.9418C11.1195 50.3941 11.6454 49.799 12.1603 49.16C12.6715 48.5211 13.1609 47.915 13.6283 47.3417C14.2016 46.648 14.7567 45.9762 15.2935 45.3336C15.8303 44.6873 16.316 44.1104 16.7506 43.5992C17.1851 43.0881 17.5576 42.6609 17.8607 42.3213C18.1638 41.9817 18.3646 41.7554 18.4596 41.6458C18.6641 41.4268 18.7919 41.3172 18.854 41.3172C18.8795 41.3172 18.8905 41.3282 18.8905 41.3537C18.8905 41.4268 18.8321 41.5801 18.7115 41.8211C18.591 42.0584 18.4413 42.3469 18.2551 42.6901C18.0688 43.0296 17.857 43.413 17.6124 43.8329C17.3677 44.2528 17.1194 44.6763 16.8711 45.1035C16.6191 45.5307 16.3744 45.9506 16.1371 46.3632C15.8997 46.7758 15.6915 47.1482 15.5126 47.4768C15.2606 47.9405 14.9758 48.4407 14.6544 48.9848C14.3331 49.5252 14.03 50.0473 13.7415 50.5475C13.4567 51.0477 13.212 51.4859 13.0185 51.8619C12.8213 52.238 12.7227 52.4899 12.7227 52.6104C12.7227 52.6725 12.7409 52.7017 12.7774 52.7017C12.8614 52.7017 13.0513 52.5192 13.3508 52.154C13.6502 51.7889 14.0044 51.3252 14.4171 50.7666C14.8297 50.2079 15.2679 49.6018 15.7317 48.9483C16.1955 48.2983 16.6373 47.6849 17.0573 47.1117C17.5357 46.4545 18.0177 45.8228 18.507 45.2204C18.9964 44.6179 19.4455 44.0702 19.8582 43.5773C20.2708 43.0844 20.6214 42.6718 20.9136 42.3359C21.2057 42 21.3992 41.7736 21.4942 41.6495C21.6841 41.4195 21.8046 41.3026 21.8521 41.3026C21.863 41.3026 21.8703 41.3136 21.8703 41.3391C21.8703 41.4121 21.8155 41.5728 21.7096 41.8247C21.6037 42.073 21.4577 42.3761 21.2787 42.7302C21.0998 43.0844 20.9026 43.4714 20.6871 43.8913C20.4717 44.3112 20.2526 44.7384 20.0262 45.1693C19.7998 45.6001 19.5843 46.02 19.3835 46.4216C19.179 46.8233 19.0073 47.1774 18.8649 47.4805C18.686 47.8566 18.4742 48.2655 18.2295 48.7036C17.9848 49.1418 17.7511 49.5763 17.532 50.0108C17.3129 50.4416 17.123 50.8469 16.9697 51.2266C16.8163 51.6027 16.7359 51.9204 16.7359 52.1759C16.7359 52.5155 16.9441 52.6871 17.3604 52.6871C17.5758 52.6871 17.8059 52.6068 18.0579 52.4498C18.3099 52.2928 18.5545 52.1029 18.7992 51.8838C19.0439 51.6648 19.2739 51.4347 19.4894 51.1974C19.7048 50.9601 19.8765 50.7666 20.0079 50.6205C20.0554 50.5475 20.1102 50.511 20.1686 50.511C20.227 50.511 20.2599 50.5475 20.2599 50.6205C20.2599 50.657 20.2416 50.6936 20.2051 50.7301C20.0992 50.8652 19.9385 51.055 19.7304 51.307C19.5222 51.5552 19.2812 51.8072 19.0073 52.0555C18.7335 52.3037 18.4377 52.5228 18.12 52.7127C17.8023 52.9025 17.4773 52.9975 17.1449 52.9975C16.8455 52.9975 16.6337 52.9062 16.5095 52.7236C16.3854 52.5411 16.3233 52.3037 16.3233 52.0116C16.3233 51.7195 16.3781 51.3617 16.484 50.971C16.5899 50.5804 16.725 50.1787 16.8857 49.7661C17.0463 49.3535 17.2253 48.9483 17.4225 48.5503C17.6197 48.156 17.8132 47.7981 18.0031 47.4805C18.4084 46.7867 18.7955 46.1441 19.1644 45.5526C19.5332 44.9611 19.8618 44.439 20.1467 43.9826C20.4315 43.5262 20.6762 43.1428 20.8697 42.8325C21.0633 42.5221 21.202 42.2994 21.2714 42.1643C21.1984 42.2483 21.0341 42.4454 20.7711 42.7485H20.7638Z" fill="#01205F"/>
<path d="M24.1087 51.5479C23.9188 51.8108 23.8239 52.0518 23.8239 52.2672C23.8239 52.5301 23.9663 52.6615 24.2511 52.6615C24.4264 52.6615 24.6674 52.5483 24.9742 52.3256C25.2846 52.1029 25.595 51.8437 25.9127 51.5479C26.2304 51.2558 26.5225 50.9674 26.7928 50.6899C27.063 50.4124 27.2456 50.2189 27.3405 50.1093C27.4501 50.0181 27.5377 49.9706 27.6035 49.9706C27.6692 49.9706 27.6984 49.9998 27.6984 50.0619C27.6984 50.1532 27.6509 50.2481 27.556 50.3394C27.461 50.4306 27.2784 50.6278 27.0082 50.9309C26.738 51.2339 26.4312 51.5479 26.0807 51.8802C25.7301 52.2124 25.3576 52.5045 24.9523 52.7601C24.5469 53.0157 24.1708 53.1435 23.8239 53.1435C23.5391 53.1435 23.3199 53.0705 23.1702 52.9244C23.0205 52.7784 22.9438 52.5885 22.9438 52.3548C22.9438 52.1394 23.0242 51.8838 23.1812 51.5881C22.8343 51.913 22.4435 52.2416 22.0163 52.5739C21.589 52.9062 21.1508 53.0741 20.7089 53.0741C20.362 53.0741 20.0991 52.9354 19.9238 52.6579C19.7485 52.3804 19.6609 52.0481 19.6609 51.6611C19.6609 51.3069 19.7193 50.9418 19.8398 50.5694C19.9603 50.197 20.1539 49.8428 20.4205 49.5032C20.7053 49.1162 21.0193 48.7949 21.359 48.5393C21.6986 48.2837 22.0345 48.0866 22.3705 47.9478C22.7028 47.8091 23.0205 47.7105 23.3199 47.6594C23.6194 47.6046 23.8823 47.579 24.1051 47.579C24.4702 47.579 24.7441 47.6448 24.9267 47.7762C25.1093 47.9076 25.2298 48.0902 25.2955 48.3202L25.7703 47.6959H26.8402L24.1087 51.5443V51.5479ZM20.614 51.1061C20.362 51.5698 20.2342 51.9569 20.2342 52.2672C20.2342 52.6214 20.4168 52.8003 20.782 52.8003C21.1143 52.8003 21.5269 52.6068 22.0163 52.2197C22.5056 51.8327 23.0059 51.3763 23.5135 50.8505C23.6559 50.6497 23.8056 50.4379 23.9663 50.2116C24.1233 49.9888 24.284 49.7698 24.441 49.5616C24.5981 49.3535 24.7368 49.1637 24.8573 48.9921C24.9778 48.8205 25.0582 48.7 25.1057 48.6196C25.1057 48.4663 25.0509 48.2983 24.9377 48.1194C24.8281 47.9405 24.6382 47.8529 24.368 47.8529C24.0357 47.8529 23.6121 48.0026 23.0972 48.3056C22.5823 48.6087 22.0455 49.1052 21.4941 49.8026C21.1618 50.2043 20.8696 50.6388 20.614 51.1025V51.1061Z" fill="#01205F"/>
<path d="M29.7873 47.9514C29.7252 47.9989 29.5937 48.1121 29.3965 48.2874C29.1993 48.4663 28.9729 48.678 28.7209 48.9263C28.469 49.1746 28.2024 49.4229 27.9249 49.6675C27.6473 49.9158 27.4063 50.1312 27.2018 50.3174C27.1215 50.3649 27.0667 50.3868 27.0338 50.3868C26.9535 50.3868 26.9133 50.3576 26.9133 50.2955C26.9133 50.2663 26.9243 50.2335 26.9498 50.2042C26.9718 50.175 27.001 50.1422 27.0338 50.113C27.3661 49.8026 27.7459 49.4411 28.1732 49.0213C28.6004 48.605 29.0204 48.1961 29.433 47.7908C29.8457 47.3892 30.2145 47.0204 30.5395 46.6881C30.8645 46.3559 31.0836 46.1112 31.1932 45.9579L34.3556 41.5764H35.3781L27.2018 52.939H26.1793L29.7909 47.9514H29.7873ZM34.8011 50.0619C34.8011 50.1531 34.7463 50.2554 34.6331 50.3649C34.4761 50.5365 34.257 50.7702 33.9795 51.0732C33.7019 51.3763 33.3988 51.6757 33.0629 51.9787C32.7269 52.2818 32.3983 52.541 32.0659 52.7564C31.7336 52.9719 31.4305 53.0814 31.164 53.0814C30.671 53.0814 30.4263 52.8258 30.4263 52.3147C30.4263 52.0992 30.4738 51.8729 30.5687 51.6428C30.6637 51.4128 30.8207 51.1864 31.0435 50.971C31.2954 50.7081 31.5145 50.4817 31.6971 50.2882C31.8797 50.0947 31.971 49.9121 31.971 49.7442C31.971 49.6347 31.898 49.5105 31.7555 49.3718C31.6606 49.4046 31.5511 49.4302 31.4232 49.4521C31.2954 49.474 31.1713 49.4886 31.0435 49.4886C30.8682 49.4886 30.7111 49.463 30.5687 49.4083C30.4263 49.3535 30.3533 49.2732 30.3533 49.1637C30.3533 49.087 30.3971 49.0139 30.4847 48.9446C30.5724 48.8752 30.7038 48.8387 30.8755 48.8387C31.0654 48.8387 31.2407 48.8606 31.3977 48.9081C31.5547 48.9555 31.6971 49.0176 31.8249 49.0943C32.1901 49.0943 32.4786 49.0505 32.694 48.9665C32.9095 48.8825 33.1505 48.6853 33.4171 48.375C33.5449 48.1888 33.7056 48.0245 33.9028 47.8748C34.1 47.7287 34.3191 47.6557 34.5564 47.6557C34.8559 47.6557 35.0093 47.7798 35.0093 48.0281C35.0093 48.2289 34.9289 48.3312 34.7719 48.3312C34.6149 48.3312 34.5345 48.2545 34.5345 48.0975C34.5345 48.0354 34.5674 47.9734 34.6295 47.9113C34.6295 47.8638 34.5966 47.8419 34.5345 47.8419C34.4396 47.8419 34.3008 47.8857 34.1182 47.9697C33.9356 48.0537 33.7567 48.2143 33.5851 48.4444C33.3623 48.7547 33.1505 48.9628 32.9424 49.0687C32.7379 49.1783 32.4603 49.2549 32.1098 49.3024C32.2668 49.3937 32.3983 49.4959 32.5005 49.6054C32.6028 49.715 32.6539 49.861 32.6539 50.0472C32.6539 50.1714 32.621 50.3174 32.5589 50.489C32.4969 50.6607 32.3763 50.8542 32.2011 51.0696C32.1061 51.2083 31.982 51.3507 31.8322 51.5004C31.6825 51.6465 31.5328 51.7852 31.3794 51.9167C31.2297 52.0481 31.1019 52.1723 30.9996 52.2891C30.8974 52.4059 30.8463 52.4936 30.8463 52.5556C30.8463 52.6323 30.8645 52.6944 30.9047 52.7418C30.9449 52.7893 31.0288 52.8112 31.153 52.8112C31.3758 52.8112 31.6387 52.7017 31.9491 52.4863C32.2595 52.2708 32.5735 52.0116 32.8985 51.7086C33.2236 51.4055 33.523 51.1025 33.8005 50.7921C34.0781 50.4817 34.2972 50.2444 34.4542 50.0728C34.5017 49.9961 34.5637 49.956 34.6441 49.956C34.739 49.956 34.7865 49.9961 34.7865 50.0728L34.8011 50.0619Z" fill="#01205F"/>
<path d="M34.9909 51.0258C34.8631 51.3909 34.801 51.7268 34.801 52.0336C34.801 52.249 34.8485 52.4242 34.9434 52.5557C35.0384 52.6871 35.2063 52.7528 35.4437 52.7528C35.7285 52.7528 36.0389 52.6543 36.3712 52.4498C36.7036 52.249 37.0322 52.008 37.3572 51.7305C37.6822 51.453 37.978 51.1646 38.2482 50.8725C38.5185 50.5804 38.7303 50.3394 38.891 50.1532C38.9384 50.0911 38.9786 50.0619 39.0115 50.0619C39.0735 50.0619 39.1064 50.1021 39.1064 50.1787C39.1064 50.2408 39.0918 50.2883 39.0589 50.3175C38.9165 50.5037 38.7047 50.7556 38.4308 51.0696C38.1533 51.3873 37.8429 51.6976 37.5033 51.997C37.1637 52.3001 36.8058 52.563 36.4333 52.7857C36.0608 53.0084 35.7103 53.1216 35.3743 53.1216C34.9288 53.1216 34.5855 52.9537 34.3409 52.6214C34.0962 52.2891 33.972 51.8766 33.972 51.38C33.972 51.0879 34.0232 50.7702 34.1254 50.4307C34.2277 50.0911 34.392 49.7442 34.6111 49.3864C34.8339 49.0469 35.0858 48.7657 35.3707 48.5393C35.6555 48.3166 35.9403 48.1377 36.2252 48.0063C36.51 47.8748 36.7729 47.7835 37.0103 47.7288C37.2477 47.674 37.4376 47.6484 37.58 47.6484C38.2775 47.6484 38.6244 47.8967 38.6244 48.3896C38.6244 48.6051 38.5367 48.8095 38.3615 49.003C38.1862 49.1966 37.9488 49.3682 37.6494 49.5142C37.3499 49.6603 37.0067 49.7807 36.6269 49.872C36.2471 49.9633 35.849 50.0108 35.4401 50.0108C35.2648 50.3211 35.115 50.657 34.9872 51.0185L34.9909 51.0258ZM38.1752 48.0683C38.0803 47.977 37.9452 47.9296 37.7699 47.9296C37.4047 47.9296 37.0395 48.0647 36.678 48.3349C36.3128 48.6051 35.9476 49.0724 35.5861 49.7369C35.9513 49.7369 36.2982 49.6968 36.6305 49.6201C36.9628 49.5434 37.2513 49.4375 37.4996 49.3061C37.7443 49.1746 37.9415 49.0322 38.0949 48.8789C38.2446 48.7255 38.3213 48.5685 38.3213 48.4152C38.3213 48.2764 38.2738 48.1596 38.1789 48.0683H38.1752Z" fill="#01205F"/>
<path d="M59.4323 42.4089C59.1657 42.7302 58.8407 43.1355 58.4572 43.6284C58.0738 44.1177 57.6466 44.6763 57.1718 45.3007C56.6971 45.925 56.2224 46.575 55.7513 47.2431C55.24 47.9515 54.7434 48.6671 54.2577 49.3901C53.772 50.113 53.3265 50.7629 52.9175 51.3435C52.5085 51.924 52.147 52.3987 51.833 52.7638C51.5153 53.1326 51.2779 53.3151 51.1209 53.3151C51.0588 53.3151 51.0186 53.2823 50.9931 53.2202C50.9675 53.1545 50.9565 53.0705 50.9565 52.9682C50.9565 52.7346 51.015 52.4096 51.1282 51.9934C51.245 51.5735 51.4021 51.1098 51.6029 50.6023C51.8037 50.0947 52.0448 49.5544 52.3333 48.9884C52.6181 48.4225 52.9248 47.8675 53.2535 47.3271C54.203 45.8338 54.9917 44.607 55.6235 43.654C56.2552 42.701 56.6642 42.0803 56.8432 41.7992C56.7336 41.927 56.5145 42.1935 56.1859 42.5915C55.8572 42.9895 55.4738 43.4605 55.0356 44.0045C54.5973 44.5449 54.1336 45.1254 53.6406 45.7461C53.1476 46.3632 52.6838 46.951 52.2456 47.506C51.6504 48.2655 51.0807 48.9994 50.5402 49.7004C49.9998 50.4014 49.4593 51.0221 48.9189 51.5552C48.3784 52.092 47.8197 52.5192 47.2427 52.8405C46.6657 53.1618 46.0413 53.3224 45.373 53.3224C44.9092 53.3224 44.5185 53.275 44.1971 53.1764C43.8758 53.0814 43.6129 52.95 43.412 52.7893C43.2112 52.6287 43.0615 52.4461 42.9665 52.249C42.8679 52.0481 42.8204 51.851 42.8204 51.6575C42.8204 51.3873 42.8825 51.1718 43.003 51.0112C43.1235 50.8505 43.2842 50.7702 43.4777 50.7702C43.6494 50.7702 43.7808 50.8286 43.8794 50.9455C43.978 51.0623 44.0255 51.1901 44.0255 51.3325C44.0255 51.5005 43.978 51.6356 43.8794 51.7378C43.7808 51.84 43.6494 51.8911 43.4777 51.8911C43.3572 51.8911 43.2659 51.8656 43.2039 51.8145C43.1418 51.7633 43.0834 51.6867 43.0213 51.5808C43.0213 51.9678 43.2185 52.3183 43.6129 52.636C44.0073 52.9536 44.6536 53.1106 45.5556 53.1106C46.1508 53.1106 46.7424 52.9208 47.334 52.5411C47.9219 52.1613 48.4953 51.6794 49.0467 51.0988C49.5981 50.5183 50.1385 49.8903 50.6607 49.2148C51.1829 48.5393 51.6832 47.8967 52.1543 47.2906C52.7386 46.5567 53.3046 45.8484 53.8487 45.1656C54.3965 44.4828 54.8895 43.8694 55.335 43.329C55.7769 42.7886 56.1566 42.3359 56.467 41.9744C56.7774 41.613 56.9819 41.3756 57.0769 41.2588C57.285 41.0251 57.4165 40.9119 57.4786 40.9119C57.5041 40.9119 57.5151 40.9265 57.5151 40.9521C57.5151 41.0288 57.453 41.1931 57.3325 41.445C57.212 41.6969 57.055 42.0036 56.8687 42.3651C56.6788 42.7266 56.4597 43.1282 56.2114 43.5737C55.9631 44.0191 55.7111 44.4682 55.4555 44.9173C55.1999 45.3701 54.9516 45.8119 54.7069 46.25C54.4622 46.6882 54.2504 47.0825 54.0678 47.4293C53.8122 47.9186 53.5201 48.4517 53.1914 49.0249C52.8628 49.5982 52.5524 50.1495 52.2602 50.6789C51.9681 51.2084 51.7234 51.6721 51.5226 52.0701C51.3217 52.468 51.2231 52.7346 51.2231 52.8624C51.2231 52.9281 51.2414 52.9573 51.2779 52.9573C51.3619 52.9573 51.5591 52.7638 51.8622 52.3768C52.1653 51.9897 52.5268 51.5005 52.9467 50.909C53.3667 50.3175 53.8122 49.6748 54.2869 48.9848C54.7617 48.2947 55.2108 47.6484 55.6344 47.0423C56.1201 46.3449 56.6131 45.6804 57.1097 45.0414C57.6064 44.4025 58.0665 43.8219 58.4865 43.2998C58.9064 42.7777 59.2643 42.3395 59.5637 41.9854C59.8595 41.6312 60.0604 41.3902 60.1553 41.2588C60.3489 41.0142 60.473 40.89 60.5205 40.89C60.5314 40.89 60.5387 40.9046 60.5387 40.9302C60.5387 41.0069 60.484 41.1785 60.3744 41.4413C60.2649 41.7042 60.1188 42.0255 59.9362 42.398C59.7536 42.7704 59.5528 43.1793 59.3337 43.6248C59.1146 44.0702 58.8882 44.5193 58.6581 44.9794C58.428 45.4358 58.2089 45.8776 58.0008 46.3048C57.7926 46.7283 57.6173 47.1044 57.4713 47.4257C57.2887 47.8237 57.0732 48.2582 56.8249 48.7219C56.5766 49.1856 56.3392 49.6456 56.1128 50.1057C55.8864 50.5621 55.6965 50.9929 55.5395 51.3909C55.3825 51.7889 55.3021 52.1248 55.3021 52.395C55.3021 52.7565 55.5139 52.9354 55.9412 52.9354C56.1603 52.9354 56.3977 52.8514 56.6533 52.6835C56.9089 52.5155 57.1609 52.3147 57.4092 52.0847C57.6575 51.851 57.8912 51.61 58.1103 51.3581C58.3294 51.1061 58.5047 50.9053 58.6398 50.7483C58.6873 50.6716 58.7421 50.6315 58.8042 50.6315C58.8662 50.6315 58.8955 50.6716 58.8955 50.7483C58.8955 50.7885 58.8772 50.825 58.8407 50.8651C58.7311 51.0075 58.5704 51.2084 58.3586 51.4749C58.1468 51.7378 57.8985 52.0043 57.621 52.2672C57.3398 52.5301 57.0404 52.7638 56.719 52.9646C56.3977 53.1654 56.0653 53.264 55.7257 53.264C55.4226 53.264 55.2072 53.1691 55.0794 52.9756C54.9516 52.782 54.8895 52.5301 54.8895 52.2197C54.8895 51.9094 54.9443 51.5297 55.0538 51.1171C55.1634 50.7045 55.2985 50.281 55.4628 49.8392C55.6271 49.401 55.8097 48.9738 56.0106 48.5539C56.2114 48.134 56.4086 47.758 56.6022 47.422C57.0148 46.6881 57.4092 46.009 57.789 45.381C58.1651 44.7567 58.5011 44.2017 58.7932 43.7197C59.0853 43.2377 59.33 42.8288 59.5309 42.5002C59.7317 42.1716 59.8668 41.9379 59.9399 41.7955C59.8668 41.8868 59.6952 42.0913 59.4286 42.4126L59.4323 42.4089Z" fill="#01205F"/>
<path d="M63.2191 49.9815C63.095 50.2955 62.9854 50.5292 62.8868 50.6862C63.0183 50.6862 63.2228 50.6533 63.504 50.5912C63.7851 50.5255 64.0225 50.4087 64.2197 50.2371C64.2672 50.1933 64.3183 50.1713 64.3694 50.1713C64.4352 50.1713 64.468 50.2079 64.468 50.2772C64.468 50.321 64.4425 50.3685 64.395 50.4269C64.1978 50.6278 63.9349 50.7701 63.6062 50.8541C63.2775 50.9381 62.9635 50.9819 62.6677 50.9819C62.5837 51.1243 62.4486 51.3069 62.2624 51.526C62.0725 51.7487 61.8424 51.9641 61.5722 52.1795C61.3019 52.3949 60.9915 52.5738 60.6483 52.7235C60.3014 52.8733 59.9325 52.9499 59.5381 52.9499C59.1109 52.9499 58.8078 52.8075 58.6252 52.5227C58.4426 52.2379 58.355 51.9093 58.355 51.5406C58.355 51.2558 58.3988 50.971 58.4901 50.6862C58.5814 50.4014 58.6982 50.1604 58.848 49.9596C59.0123 49.7442 59.2095 49.5178 59.4396 49.2768C59.6696 49.0358 59.9289 48.8167 60.2174 48.6232C60.5059 48.4297 60.8272 48.2691 61.1778 48.1413C61.532 48.0135 61.93 47.9478 62.3756 47.9478C62.7699 47.9478 63.0402 48.05 63.1899 48.2581C63.3396 48.4662 63.4127 48.7109 63.4127 48.9957C63.4127 49.3389 63.3506 49.6675 63.2264 49.9778L63.2191 49.9815ZM59.728 52.7199C59.9764 52.7199 60.2283 52.6615 60.4913 52.5483C60.7542 52.4351 61.0098 52.2927 61.2545 52.1211C61.5028 51.9495 61.7219 51.7596 61.9191 51.5552C62.1163 51.347 62.266 51.1535 62.3646 50.9673C62.3317 50.9527 62.2916 50.9345 62.2404 50.9125C62.1893 50.8906 62.1674 50.8505 62.1674 50.7957C62.1674 50.6971 62.2477 50.646 62.4157 50.646C62.4815 50.646 62.5399 50.6533 62.5874 50.6679C62.7371 50.4415 62.8612 50.1713 62.9708 49.8646C63.0767 49.5579 63.1315 49.2622 63.1315 48.9774C63.1315 48.751 63.0767 48.5648 62.9708 48.4224C62.8649 48.28 62.6787 48.207 62.4157 48.207C62.0688 48.207 61.7036 48.3603 61.3166 48.667C60.9295 48.9737 60.5679 49.3389 60.232 49.7588C59.896 50.1787 59.6148 50.6131 59.3921 51.0622C59.1693 51.5113 59.0598 51.8801 59.0598 52.1649C59.0598 52.5373 59.2825 52.7199 59.7244 52.7199H59.728Z" fill="#01205F"/>
<path d="M71.1251 49.4266C71.2895 49.2842 71.4794 49.1235 71.6912 48.9446C71.903 48.7657 72.1257 48.6051 72.3558 48.4627C72.5858 48.3203 72.8195 48.1998 73.0606 48.0975C73.2979 47.9989 73.5316 47.9478 73.7654 47.9478C73.9991 47.9478 74.1634 48.0099 74.2693 48.1304C74.3752 48.2509 74.43 48.4115 74.43 48.6124C74.43 48.8533 74.3606 49.1126 74.2218 49.3828C74.0831 49.653 73.8968 49.9085 73.6668 50.1532C72.5968 51.1938 72.0636 51.9131 72.0636 52.3147C72.0636 52.5411 72.2462 52.6579 72.6077 52.6579C72.8195 52.6579 73.0679 52.5739 73.3491 52.4023C73.6302 52.2307 73.926 52.0226 74.2364 51.7707C74.5468 51.5224 74.8536 51.2558 75.1494 50.9674C75.4452 50.6826 75.7081 50.4343 75.9381 50.2189C76.0221 50.1495 76.1025 50.113 76.1865 50.113C76.2522 50.113 76.2851 50.1495 76.2851 50.2189C76.2851 50.2627 76.2449 50.3321 76.1609 50.4343C75.9126 50.6753 75.6314 50.9455 75.31 51.2376C74.9887 51.5297 74.6637 51.8035 74.335 52.0591C74.0064 52.3147 73.6814 52.5338 73.36 52.7127C73.0387 52.8916 72.7575 52.9792 72.5091 52.9792C72.2608 52.9792 72.0308 52.8989 71.819 52.7455C71.6035 52.5885 71.4976 52.3476 71.4976 52.0189C71.4976 51.8181 71.5414 51.5954 71.6327 51.3435C71.724 51.0952 71.8737 50.814 72.0892 50.5C72.2207 50.3138 72.3923 50.113 72.6077 49.8903C72.8195 49.6712 73.0277 49.4594 73.2249 49.2586C73.4221 49.0578 73.5937 48.8825 73.7434 48.7255C73.8932 48.5685 73.9662 48.448 73.9662 48.3604C73.9662 48.218 73.8749 48.145 73.696 48.145C73.517 48.145 73.2943 48.2144 73.0314 48.3495C72.7684 48.4846 72.4836 48.6598 72.1805 48.8752C71.8774 49.0907 71.5706 49.3353 71.2676 49.6128C70.9645 49.8903 70.6869 50.1714 70.4423 50.4562L68.4447 52.8514H67.2105L70.3437 49.087C70.424 48.9884 70.508 48.8679 70.592 48.7219C70.676 48.5795 70.7161 48.4517 70.7161 48.3385C70.7161 48.2107 70.6175 48.145 70.4203 48.145C70.2378 48.145 70.015 48.2217 69.7411 48.3714C69.4709 48.5211 69.1824 48.7073 68.8793 48.9264C68.5762 49.1491 68.2841 49.3864 68.0029 49.642C67.7217 49.8976 67.5026 50.1349 67.3383 50.3467L65.2896 52.8478H64.0553L67.1374 49.0834C67.236 48.9702 67.3383 48.8387 67.4442 48.689C67.5501 48.5393 67.6048 48.4152 67.6048 48.3166C67.6048 48.2582 67.5647 48.2326 67.4807 48.2326C67.2981 48.2326 67.0607 48.313 66.7649 48.4663C66.4691 48.6233 66.1624 48.8168 65.841 49.0432C65.5197 49.2696 65.202 49.5106 64.8916 49.7588C64.5775 50.0071 64.3073 50.2262 64.0772 50.4124C64.0444 50.4416 64.0042 50.4562 63.9531 50.4562C63.8874 50.4562 63.8545 50.427 63.8545 50.3722C63.8545 50.3175 63.8728 50.2664 63.902 50.2225C64.1138 50.0217 64.3913 49.7917 64.7273 49.5288C65.0632 49.2659 65.4101 49.014 65.7644 48.7803C66.1186 48.5466 66.4545 48.3458 66.7759 48.1815C67.0972 48.0172 67.3565 47.9369 67.5537 47.9369C67.8349 47.9369 68.0248 47.9916 68.1343 48.0975C68.2402 48.2034 68.295 48.3349 68.295 48.4919C68.295 48.6489 68.2585 48.8095 68.1855 48.9738C68.1124 49.1381 68.0248 49.2915 67.9262 49.4339C68.1088 49.2769 68.3096 49.1089 68.5287 48.93C68.7515 48.7511 68.9742 48.5868 69.1934 48.4371C69.4161 48.2874 69.6389 48.1669 69.858 48.072C70.0807 47.9807 70.2889 47.9332 70.4861 47.9332C70.8147 47.9332 71.0448 48.0063 71.1763 48.1486C71.3077 48.291 71.3735 48.4627 71.3735 48.6635C71.3735 48.9337 71.2895 49.1929 71.1251 49.4339V49.4266Z" fill="#01205F"/>
<path d="M76.4787 51.0842C76.3472 51.4201 76.2815 51.7305 76.2815 52.0153C76.2815 52.2161 76.3326 52.3767 76.4312 52.4972C76.5298 52.6177 76.7014 52.6798 76.9497 52.6798C77.2455 52.6798 77.5669 52.5885 77.9102 52.4023C78.2571 52.2161 78.5967 51.997 78.9326 51.7378C79.2686 51.4822 79.579 51.2193 79.8565 50.9455C80.1377 50.6753 80.3568 50.4525 80.5212 50.2809C80.5723 50.2225 80.6125 50.197 80.6453 50.197C80.711 50.197 80.7439 50.2335 80.7439 50.3028C80.7439 50.3613 80.7257 50.4014 80.6928 50.4306C80.5431 50.6022 80.3276 50.8323 80.0391 51.1244C79.7506 51.4165 79.4293 51.7013 79.0787 51.9788C78.7245 52.2562 78.3557 52.5009 77.9686 52.7053C77.5815 52.9135 77.2163 53.0157 76.8694 53.0157C76.4093 53.0157 76.0514 52.8624 75.7958 52.5557C75.5402 52.2489 75.4124 51.8692 75.4124 51.4128C75.4124 51.1426 75.4671 50.8505 75.573 50.5365C75.6789 50.2225 75.8469 49.9012 76.0806 49.5726C76.3107 49.2586 76.5736 48.9994 76.8694 48.7912C77.1652 48.5831 77.461 48.4188 77.7568 48.2983C78.0526 48.1778 78.3228 48.0902 78.5711 48.0427C78.8194 47.9916 79.0166 47.9661 79.1627 47.9661C79.8858 47.9661 80.2473 48.1924 80.2473 48.6488C80.2473 48.8497 80.156 49.0359 79.977 49.2148C79.7945 49.3937 79.5498 49.5507 79.2357 49.6858C78.9217 49.8209 78.5711 49.9304 78.1767 50.018C77.7823 50.1057 77.3697 50.1458 76.9424 50.1458C76.7599 50.4306 76.6065 50.741 76.475 51.0769L76.4787 51.0842ZM79.7835 48.3567C79.6849 48.2728 79.5461 48.229 79.3636 48.229C78.9838 48.229 78.6076 48.3531 78.2279 48.6014C77.8481 48.8497 77.4719 49.2842 77.0922 49.8939C77.4719 49.8939 77.8335 49.8574 78.1767 49.788C78.5237 49.715 78.8231 49.6201 79.0787 49.4996C79.3343 49.3791 79.5388 49.2476 79.6959 49.1052C79.8529 48.9628 79.9296 48.8204 79.9296 48.6781C79.9296 48.5503 79.8785 48.4444 79.7799 48.3567H79.7835Z" fill="#01205F"/>
<path d="M87.3937 49.3937C87.2367 49.6858 86.9957 49.9815 86.667 50.2809C86.2544 50.6789 85.9111 51.0513 85.6299 51.3945C85.3487 51.7378 85.21 52.0518 85.21 52.3366C85.21 52.5629 85.367 52.6798 85.6774 52.6798C85.9074 52.6798 86.1813 52.5812 86.5027 52.3804C86.824 52.1796 87.1454 51.9459 87.4631 51.6757C87.7844 51.4055 88.0875 51.1317 88.376 50.8505C88.6645 50.573 88.8982 50.354 89.0808 50.1969C89.1319 50.1531 89.1794 50.1312 89.2305 50.1312C89.3291 50.1312 89.3803 50.1677 89.3803 50.2371C89.3803 50.2955 89.3474 50.3503 89.2817 50.4087C89.0991 50.5657 88.8581 50.7921 88.555 51.0842C88.2519 51.3763 87.9269 51.6611 87.58 51.9386C87.233 52.2161 86.8861 52.4607 86.5319 52.6652C86.1777 52.8733 85.86 52.9755 85.5824 52.9755C85.2538 52.9755 84.9982 52.9025 84.8192 52.7601C84.6366 52.6177 84.549 52.3767 84.549 52.0335C84.549 51.7341 84.6184 51.4384 84.7571 51.1463C84.8959 50.8542 85.2063 50.4598 85.681 49.9596C85.9914 49.631 86.3018 49.3426 86.6049 49.0943C86.908 48.846 87.0614 48.6342 87.0614 48.4626C87.0614 48.3494 87.0395 48.2764 86.9993 48.2472C86.9592 48.218 86.8898 48.2034 86.7912 48.2034C86.594 48.2034 86.3566 48.2764 86.0754 48.4188C85.7942 48.5612 85.5021 48.7438 85.199 48.9628C84.8959 49.1856 84.6001 49.4265 84.3116 49.6894C84.0231 49.9523 83.7821 50.2079 83.5849 50.4489L81.6605 52.8441H80.3787L83.4863 49.0797C83.5703 48.9811 83.658 48.8643 83.7566 48.7255C83.8552 48.5904 83.9063 48.4736 83.9063 48.3713C83.9063 48.2874 83.8479 48.2435 83.7347 48.2435C83.5375 48.2435 83.2745 48.3421 82.9459 48.5429C82.6172 48.7438 82.2813 48.9701 81.9343 49.2257C81.5874 49.4813 81.2734 49.7332 80.9849 49.9742C80.6964 50.2152 80.5028 50.3795 80.4043 50.4671C80.3385 50.4964 80.2984 50.511 80.2801 50.511C80.1815 50.511 80.1304 50.4744 80.1304 50.4051C80.1304 50.3759 80.1632 50.3357 80.229 50.2773C80.313 50.2189 80.4955 50.0619 80.784 49.8063C81.0725 49.5507 81.4048 49.2805 81.7846 49.003C82.1644 48.7255 82.5478 48.4772 82.9459 48.2545C83.3403 48.0354 83.6872 47.9222 83.983 47.9222C84.213 47.9222 84.3701 47.977 84.4504 48.0829C84.5307 48.1888 84.5746 48.3202 84.5746 48.4772C84.5746 48.6342 84.5526 48.7876 84.5125 48.9373C84.4723 49.087 84.4175 49.2257 84.3518 49.3535C84.5161 49.2111 84.7024 49.0578 84.9069 48.8935C85.1114 48.7292 85.3268 48.5758 85.5496 48.4334C85.7723 48.291 85.9987 48.1742 86.2288 48.0792C86.4589 47.988 86.6889 47.9405 86.919 47.9405C87.3974 47.9405 87.6347 48.1632 87.6347 48.605C87.6347 48.8314 87.558 49.0943 87.401 49.3864L87.3937 49.3937Z" fill="#01205F"/>
<path d="M91.3267 46.8597C91.1441 46.8597 91.0565 46.8232 91.0565 46.7539C91.0565 46.6553 91.1624 46.6042 91.3778 46.6042H92.6596L94.8287 43.9753H95.8877L93.7916 46.6042H95.099C95.2633 46.6042 95.3473 46.648 95.3473 46.732C95.3473 46.8159 95.256 46.8597 95.0771 46.8597H93.5725L90.7862 50.3686C90.6548 50.5402 90.516 50.7191 90.3663 50.9016C90.2166 51.0879 90.0815 51.2668 89.961 51.4347C89.8368 51.6063 89.7345 51.767 89.6542 51.9167C89.5702 52.0664 89.53 52.1905 89.53 52.2891C89.53 52.5155 89.6615 52.6323 89.9244 52.6323C90.0888 52.6323 90.3115 52.5483 90.5891 52.3767C90.8702 52.2051 91.1587 52.0007 91.4655 51.756C91.7686 51.5151 92.068 51.2522 92.3675 50.9747C92.6669 50.6972 92.9262 50.4489 93.1562 50.2371C93.2074 50.1933 93.2621 50.1714 93.3279 50.1714C93.3936 50.1714 93.4265 50.2152 93.4265 50.2992C93.4265 50.3576 93.3936 50.4197 93.3279 50.4927C93.0138 50.7921 92.7144 51.0769 92.4259 51.3471C92.1374 51.6173 91.8526 51.8692 91.575 52.0956C91.2281 52.3512 90.9031 52.5593 90.6 52.7163C90.2969 52.8733 90.0048 52.95 89.7236 52.95C89.3949 52.95 89.1612 52.877 89.0188 52.7346C88.88 52.5922 88.8106 52.4059 88.8106 52.1796C88.8106 51.9532 88.8618 51.7122 88.9604 51.4639C89.059 51.2156 89.1977 50.9601 89.3803 50.7045C89.4789 50.5475 89.6031 50.3722 89.7492 50.1787C89.8989 49.9852 90.0522 49.7917 90.2166 49.5909C90.3809 49.39 90.5452 49.1965 90.7096 49.003C90.8739 48.8095 91.02 48.6415 91.1551 48.4991C90.841 48.7839 90.5051 49.0833 90.1435 49.3973C89.782 49.7113 89.3621 50.0619 88.8837 50.4452C88.8362 50.4891 88.7778 50.511 88.712 50.511C88.6317 50.511 88.5879 50.4818 88.5879 50.427C88.5879 50.3978 88.6061 50.3649 88.639 50.3321C88.6719 50.2955 88.7047 50.2627 88.7376 50.2371C88.9677 50.0509 89.2635 49.799 89.625 49.4777C89.9865 49.1564 90.348 48.8387 90.7096 48.5247C91.0711 48.2107 91.3924 47.9259 91.67 47.6703C91.9512 47.4147 92.1228 47.2504 92.1885 47.1774L92.4368 46.8561H91.3267V46.8597Z" fill="#01205F"/>
</svg>
