<svg width="200" height="200" viewBox="0 0 200 200" fill="none" xmlns="http://www.w3.org/2000/svg">
<path d="M0 99.8832C0.233712 44.1948 45.0334 -0.152955 100.263 0.000396507C155.777 0.153748 200.211 44.9542 199.999 100.365C199.78 156.002 154.856 200.153 99.7732 200C44.2446 199.839 0.0657316 155.075 0 99.8832ZM99.9412 1.13958C45.3183 1.30023 1.12474 45.6626 1.14665 100.037C1.16856 153.929 45.1503 198.955 100.146 198.868C155.462 198.773 198.955 153.359 198.889 99.8978C198.823 46.2394 155.083 1.06655 99.9412 1.13958Z" fill="white"/>
<path d="M69.953 126.376C69.785 126.946 69.4782 127.808 69.303 128.18C68.967 128.253 68.0395 128.465 67.1411 128.465C64.2562 128.465 62.8394 126.559 62.8394 124.522C62.8394 122.104 64.6798 120.44 67.3602 120.44C68.3754 120.44 69.2226 120.659 69.5951 120.717C69.6462 121.25 69.7266 121.988 69.8215 122.572L69.4344 122.652C69.1934 121.834 68.9013 121.36 68.2951 121.111C67.9883 120.973 67.5209 120.9 67.09 120.9C65.1838 120.9 64.1832 122.338 64.1832 124.273C64.1832 126.53 65.3518 127.998 67.2142 127.998C68.3827 127.998 68.9816 127.45 69.5951 126.245L69.9676 126.376H69.953Z" fill="white"/>
<path d="M74.7294 128.436C74.5249 128.436 74.2693 128.341 74.1451 128.209C73.9918 128.056 73.9187 127.895 73.8603 127.698C73.3929 128.012 72.8159 128.443 72.4726 128.443C71.6035 128.443 71.0046 127.727 71.0046 126.975C71.0046 126.391 71.3187 126.026 71.9614 125.8C72.6771 125.551 73.5755 125.245 73.8311 125.033V124.748C73.8311 123.952 73.444 123.492 72.8451 123.492C72.5895 123.492 72.4215 123.616 72.3047 123.755C72.1732 123.923 72.0929 124.178 71.9906 124.522C71.9249 124.733 71.808 124.814 71.6181 124.814C71.3771 124.814 71.0631 124.573 71.0631 124.281C71.0631 124.105 71.2164 123.959 71.4575 123.791C71.8372 123.521 72.5238 123.105 73.1957 122.959C73.5682 122.959 73.9406 123.068 74.2255 123.28C74.6564 123.638 74.839 124.054 74.839 124.668V126.902C74.839 127.45 75.0362 127.611 75.248 127.611C75.3867 127.611 75.5328 127.552 75.6643 127.486L75.7884 127.83L74.7367 128.436H74.7294ZM73.8238 125.449C73.5755 125.573 73.0715 125.8 72.8013 125.924C72.3704 126.121 72.1075 126.347 72.1075 126.778C72.1075 127.413 72.5749 127.684 72.9328 127.684C73.2176 127.684 73.5901 127.53 73.8238 127.304V125.456V125.449Z" fill="white"/>
<path d="M82.0695 128.29C81.383 128.29 80.6672 128.297 80.3824 128.312C80.3166 128.231 78.5346 126.033 78.4689 125.96C78.3155 125.778 78.2424 125.719 78.1475 125.719C78.1037 125.719 78.016 125.719 77.9576 125.734V127.034C77.9576 127.822 78.016 127.866 78.761 127.939V128.282H76.0952V127.939C76.8548 127.866 76.9132 127.793 76.9132 127.034V121.433C76.9132 120.688 76.8329 120.659 76.1244 120.549V120.228C76.7598 120.169 77.4829 120.001 77.9576 119.826V125.412C78.2936 125.332 78.52 125.179 78.6953 124.989C78.9728 124.711 79.411 124.186 79.5936 123.901C79.82 123.572 79.7104 123.477 79.17 123.426V123.083L81.6167 122.981V123.309C80.806 123.441 80.543 123.543 80.0537 124.054C79.8346 124.281 79.3526 124.836 79.0897 125.15C79.338 125.507 80.5211 126.895 80.9009 127.311C81.4341 127.851 81.5948 127.903 82.0622 127.932V128.275L82.0695 128.29Z" fill="white"/>
<path d="M86.5609 127.26C85.8087 128.224 84.9615 128.436 84.5671 128.436C83.0991 128.436 82.2227 127.26 82.2227 125.887C82.2227 125.077 82.5221 124.324 83.0114 123.806C83.5154 123.258 84.1654 122.952 84.7862 122.952C85.8379 122.952 86.6194 123.85 86.6194 124.799C86.6121 125.025 86.5755 125.15 86.4003 125.201C86.1666 125.252 84.6255 125.354 83.2671 125.398C83.2451 126.924 84.1654 127.567 85.0053 127.567C85.4873 127.567 85.9328 127.37 86.371 126.975L86.5609 127.253V127.26ZM84.5087 123.412C83.9755 123.412 83.4716 123.93 83.3182 124.879C83.9463 124.879 84.5744 124.879 85.2317 124.843C85.4362 124.843 85.5092 124.792 85.5092 124.609C85.5238 123.989 85.1368 123.412 84.5087 123.412Z" fill="white"/>
<path d="M98.1739 123.616C97.3559 123.704 97.2171 123.908 96.8227 124.478C96.5087 124.923 96.1873 125.391 95.771 126.004C96.3261 126.53 97.4216 127.749 97.8014 128.37L97.7357 128.501C96.9907 128.458 96.3188 128.18 96.1727 128.027C96.0266 127.866 95.4935 127.348 95.1064 126.939C94.2665 128.049 93.4996 128.443 92.6451 128.443C91.0968 128.443 90.2642 127.318 90.2642 126.296C90.2715 125.215 90.885 124.784 92.0243 124.069C91.4765 123.587 91.1187 123.046 91.1187 122.389C91.126 121.323 92.017 120.505 93.1125 120.505C94.135 120.505 94.9165 121.192 94.9165 122.148C94.9092 122.623 94.6755 122.973 94.4052 123.193C94.1715 123.375 93.821 123.594 93.3974 123.842C93.7771 124.164 94.6974 124.938 95.4643 125.69C95.7199 125.288 95.9609 124.909 96.1727 124.405C96.3991 123.864 96.3188 123.704 95.457 123.616V123.251H98.1666V123.616H98.1739ZM92.9811 127.589C93.7479 127.589 94.2227 127.318 94.7923 126.603C94.135 125.887 93.3609 125.223 92.3457 124.361C91.5861 124.879 91.367 125.361 91.367 125.953C91.367 127.063 92.2069 127.589 92.9811 127.589ZM92.9957 120.929C92.426 120.929 92.0681 121.389 92.0681 122.053C92.0681 122.652 92.3676 123.017 93.0906 123.594C93.7041 123.149 93.9816 122.776 93.9816 122.156C93.9743 121.484 93.6384 120.929 92.9957 120.929Z" fill="white"/>
<path d="M105.003 120.615C106.638 120.615 107.705 120.943 108.442 121.644C109.027 122.207 109.458 123.039 109.458 124.178C109.458 125.559 108.888 126.661 107.982 127.348C107.091 128.019 105.945 128.29 104.513 128.29H101.665V127.939C102.658 127.851 102.717 127.764 102.717 126.793V122.119C102.717 121.104 102.578 121.053 101.665 120.965V120.615H105.01H105.003ZM103.849 126.705C103.849 127.581 104.199 127.837 105.076 127.837C107.106 127.837 108.165 126.442 108.165 124.346C108.165 123.09 107.749 122.112 106.887 121.549C106.354 121.177 105.682 121.046 104.886 121.046C104.374 121.046 104.104 121.119 103.995 121.214C103.885 121.294 103.849 121.433 103.849 121.871V126.705Z" fill="white"/>
<path d="M114.84 127.26C114.088 128.224 113.241 128.436 112.846 128.436C111.378 128.436 110.502 127.26 110.502 125.887C110.502 125.077 110.801 124.324 111.291 123.806C111.795 123.258 112.445 122.952 113.065 122.952C114.117 122.952 114.899 123.85 114.899 124.799C114.891 125.025 114.855 125.15 114.68 125.201C114.446 125.252 112.905 125.354 111.546 125.398C111.524 126.924 112.445 127.567 113.285 127.567C113.767 127.567 114.212 127.37 114.65 126.975L114.84 127.253V127.26ZM112.788 123.412C112.255 123.412 111.751 123.93 111.597 124.879C112.226 124.879 112.854 124.879 113.511 124.843C113.715 124.843 113.789 124.792 113.789 124.609C113.803 123.989 113.416 123.412 112.788 123.412Z" fill="white"/>
<path d="M118.718 124.522C118.492 123.813 118.163 123.353 117.477 123.353C117.075 123.353 116.761 123.638 116.761 124.098C116.761 124.587 117.097 124.821 117.747 125.12C118.755 125.595 119.288 125.96 119.288 126.763C119.288 127.866 118.273 128.428 117.323 128.428C116.71 128.428 116.148 128.231 115.899 128.092C115.841 127.764 115.739 127.085 115.688 126.69L116.038 126.632C116.257 127.384 116.681 128.012 117.499 128.012C117.944 128.012 118.295 127.713 118.295 127.245C118.295 126.742 118.003 126.471 117.353 126.157C116.535 125.763 115.848 125.376 115.848 124.5C115.848 123.623 116.586 122.952 117.725 122.952C118.236 122.952 118.645 123.068 118.886 123.112C118.923 123.404 119.011 124.149 119.069 124.441L118.718 124.529V124.522Z" fill="white"/>
<path d="M123.174 124.522C122.947 123.813 122.618 123.353 121.932 123.353C121.53 123.353 121.216 123.638 121.216 124.098C121.216 124.587 121.552 124.821 122.202 125.12C123.21 125.595 123.743 125.96 123.743 126.763C123.743 127.866 122.728 128.428 121.779 128.428C121.165 128.428 120.603 128.231 120.354 128.092C120.296 127.764 120.194 127.085 120.143 126.69L120.493 126.632C120.712 127.384 121.136 128.012 121.954 128.012C122.399 128.012 122.75 127.713 122.75 127.245C122.75 126.742 122.458 126.471 121.808 126.157C120.99 125.763 120.303 125.376 120.303 124.5C120.303 123.623 121.041 122.952 122.18 122.952C122.691 122.952 123.101 123.068 123.342 123.112C123.378 123.404 123.466 124.149 123.524 124.441L123.174 124.529V124.522Z" fill="white"/>
<path d="M128.958 127.26C128.206 128.224 127.358 128.436 126.964 128.436C125.496 128.436 124.62 127.26 124.62 125.887C124.62 125.077 124.919 124.324 125.408 123.806C125.912 123.258 126.562 122.952 127.183 122.952C128.235 122.952 129.016 123.85 129.016 124.799C129.009 125.025 128.973 125.15 128.797 125.201C128.564 125.252 127.022 125.354 125.664 125.398C125.642 126.924 126.562 127.567 127.402 127.567C127.884 127.567 128.33 127.37 128.768 126.975L128.958 127.253V127.26ZM126.906 123.412C126.372 123.412 125.869 123.93 125.715 124.879C126.343 124.879 126.971 124.879 127.629 124.843C127.833 124.843 127.906 124.792 127.906 124.609C127.921 123.989 127.534 123.412 126.906 123.412Z" fill="white"/>
<path d="M132.5 128.29H129.71V127.946C130.433 127.873 130.499 127.815 130.499 127.063V124.58C130.499 123.835 130.455 123.791 129.791 123.704V123.397C130.397 123.302 130.952 123.163 131.536 122.922V124.215C131.975 123.565 132.457 122.952 133.026 122.952C133.464 122.952 133.727 123.229 133.727 123.543C133.727 123.857 133.501 124.142 133.289 124.259C133.165 124.332 133.063 124.31 132.968 124.229C132.785 124.054 132.639 123.923 132.435 123.923C132.201 123.923 131.785 124.251 131.536 124.828V127.056C131.536 127.822 131.602 127.873 132.493 127.954V128.297L132.5 128.29Z" fill="white"/>
<path d="M136.787 128.282C136.59 128.385 136.4 128.428 136.283 128.428C135.502 128.428 135.071 127.976 135.071 127.004V123.594H134.267L134.216 123.455L134.538 123.09H135.071V122.097C135.326 121.849 135.714 121.535 135.969 121.287L136.144 121.323C136.123 121.79 136.108 122.462 136.108 123.083H137.423C137.532 123.2 137.488 123.477 137.35 123.587H136.108V126.588C136.108 127.537 136.488 127.705 136.78 127.705C137.05 127.705 137.298 127.611 137.474 127.53L137.583 127.859L136.787 128.275V128.282Z" fill="white"/>
<path d="M41.5277 84.4969C41.0018 85.103 40.3664 85.8698 39.6141 86.7972C38.8619 87.7246 38.022 88.7762 37.0944 89.9592C36.1669 91.1421 35.232 92.3617 34.3045 93.6323C33.3039 94.9686 32.3252 96.3269 31.3685 97.6851C30.4117 99.0507 29.5353 100.278 28.7392 101.373C27.9431 102.468 27.2274 103.366 26.6066 104.06C25.9858 104.754 25.5184 105.104 25.2116 105.104C25.0948 105.104 25.0071 105.046 24.9633 104.922C24.9122 104.798 24.8903 104.644 24.8903 104.447C24.8903 104.009 24.9998 103.396 25.2335 102.6C25.4599 101.811 25.7667 100.935 26.1611 99.9708C26.5555 99.0069 27.0302 97.9918 27.5926 96.9184C28.1549 95.8449 28.7538 94.8007 29.3965 93.7783C31.2589 90.9523 32.8073 88.6374 34.0489 86.8337C35.2905 85.03 36.0865 83.8616 36.4444 83.3285C36.2326 83.5695 35.8017 84.0734 35.159 84.8255C34.5163 85.5777 33.764 86.4686 32.9022 87.4909C32.0404 88.5133 31.1275 89.6086 30.1634 90.777C29.1993 91.9454 28.2864 93.0554 27.4246 94.0996C26.256 95.5382 25.1386 96.9184 24.0796 98.2474C23.0206 99.5765 21.9543 100.745 20.8953 101.753C19.8362 102.76 18.7334 103.571 17.6014 104.184C16.4693 104.79 15.2423 105.097 13.935 105.097C13.0294 105.097 12.2552 105.009 11.6271 104.82C10.9917 104.637 10.4805 104.396 10.0861 104.089C9.69167 103.783 9.39953 103.447 9.20964 103.067C9.01975 102.687 8.9248 102.315 8.9248 101.95C8.9248 101.439 9.04166 101.03 9.28268 100.723C9.52369 100.416 9.83044 100.263 10.2102 100.263C10.5462 100.263 10.8091 100.372 10.999 100.592C11.1889 100.811 11.2838 101.052 11.2838 101.322C11.2838 101.636 11.1889 101.891 10.999 102.089C10.8091 102.286 10.5462 102.381 10.2102 102.381C9.96921 102.381 9.79392 102.329 9.67707 102.235C9.56021 102.14 9.43605 101.994 9.31919 101.796C9.31919 102.527 9.70628 103.191 10.4805 103.79C11.2546 104.389 12.5254 104.688 14.2929 104.688C15.4614 104.688 16.6227 104.33 17.784 103.607C18.9379 102.892 20.0627 101.979 21.1509 100.884C22.2391 99.7882 23.2908 98.5979 24.3206 97.32C25.3431 96.0421 26.3218 94.8299 27.2566 93.6834C28.4033 92.2959 29.5134 90.9523 30.587 89.6671C31.6606 88.3745 32.632 87.2207 33.5011 86.1984C34.3702 85.1761 35.1152 84.3217 35.7214 83.6425C36.3276 82.9634 36.7293 82.5107 36.9191 82.2916C37.3281 81.8534 37.5838 81.6344 37.7079 81.6344C37.7591 81.6344 37.781 81.6563 37.781 81.7074C37.781 81.8534 37.6641 82.1601 37.4231 82.6421C37.1821 83.1168 36.8826 83.6937 36.5102 84.3801C36.1377 85.0592 35.7141 85.826 35.2247 86.6658C34.7354 87.5055 34.2388 88.3526 33.7421 89.207C33.2382 90.0614 32.7488 90.9012 32.2741 91.7263C31.7994 92.5515 31.3831 93.2964 31.0252 93.9536C30.5213 94.881 29.9516 95.8814 29.3089 96.9695C28.6662 98.0503 28.06 99.0945 27.483 100.095C26.9133 101.095 26.424 101.972 26.0369 102.724C25.6425 103.476 25.4453 103.98 25.4453 104.221C25.4453 104.345 25.4819 104.403 25.5549 104.403C25.7229 104.403 26.1027 104.038 26.7015 103.308C27.3004 102.578 28.0089 101.65 28.8342 100.533C29.6595 99.4158 30.5359 98.2036 31.4634 96.8965C32.391 95.5966 33.2747 94.3698 34.1146 93.2233C35.0714 91.9089 36.0354 90.6456 37.0141 89.4407C37.9928 88.2358 38.8911 87.1404 39.7164 86.1546C40.5417 85.1688 41.2428 84.3436 41.8271 83.6718C42.4114 82.9999 42.7985 82.5472 42.9884 82.2989C43.3681 81.8388 43.6092 81.6052 43.7041 81.6052C43.726 81.6052 43.7406 81.6271 43.7406 81.6782C43.7406 81.8242 43.6311 82.1455 43.4193 82.6494C43.2075 83.146 42.9153 83.7521 42.5575 84.4604C42.1996 85.1688 41.8052 85.9428 41.3743 86.7826C40.9434 87.6224 40.5052 88.4768 40.0524 89.3384C39.5995 90.2001 39.1686 91.0399 38.7669 91.8432C38.3579 92.6464 38.0147 93.3548 37.7298 93.9609C37.372 94.713 36.9484 95.5309 36.459 96.4072C35.9697 97.2835 35.5023 98.1525 35.0641 99.0215C34.6258 99.8832 34.2461 100.694 33.9393 101.453C33.6326 102.205 33.4719 102.841 33.4719 103.352C33.4719 104.031 33.8882 104.374 34.7208 104.374C35.1517 104.374 35.6118 104.214 36.1158 103.9C36.6197 103.586 37.109 103.206 37.5984 102.768C38.0877 102.329 38.5478 101.869 38.9787 101.395C39.4096 100.92 39.7529 100.533 40.0158 100.241C40.1108 100.095 40.2203 100.022 40.3372 100.022C40.454 100.022 40.5198 100.095 40.5198 100.241C40.5198 100.314 40.4833 100.387 40.4102 100.46C40.1984 100.73 39.8771 101.11 39.4608 101.614C39.0445 102.11 38.5624 102.614 38.0147 103.111C37.4669 103.607 36.8753 104.046 36.2399 104.425C35.6045 104.805 34.9545 104.995 34.2899 104.995C33.691 104.995 33.2674 104.812 33.0191 104.447C32.7708 104.082 32.6466 103.607 32.6466 103.023C32.6466 102.439 32.7561 101.723 32.9679 100.942C33.1798 100.161 33.45 99.3574 33.7713 98.5322C34.0927 97.707 34.4506 96.8965 34.8449 96.1005C35.2393 95.3118 35.6264 94.5962 36.0062 93.9609C36.8169 92.5734 37.5911 91.2882 38.3287 90.1052C39.0664 88.9222 39.7237 87.878 40.2934 86.9652C40.863 86.0523 41.3524 85.2856 41.7395 84.6649C42.1265 84.0442 42.4041 83.5987 42.5428 83.3285C42.3968 83.4965 42.0681 83.8908 41.5423 84.4969H41.5277Z" fill="white"/>
<path d="M48.2177 102.096C47.8379 102.622 47.648 103.104 47.648 103.534C47.648 104.06 47.9329 104.323 48.5025 104.323C48.8531 104.323 49.3351 104.097 49.9486 103.651C50.5694 103.206 51.1902 102.687 51.8256 102.096C52.461 101.512 53.0453 100.935 53.5858 100.38C54.1262 99.8247 54.4914 99.4377 54.6813 99.2186C54.9004 99.0361 55.0757 98.9412 55.2071 98.9412C55.3386 98.9412 55.397 98.9996 55.397 99.1237C55.397 99.3063 55.3021 99.4961 55.1122 99.6787C54.9223 99.8613 54.5571 100.256 54.0167 100.862C53.4762 101.468 52.8627 102.096 52.1616 102.76C51.4604 103.425 50.7155 104.009 49.9048 104.52C49.0941 105.031 48.3419 105.287 47.648 105.287C47.0783 105.287 46.6401 105.141 46.3407 104.849C46.0412 104.557 45.8879 104.177 45.8879 103.71C45.8879 103.279 46.0486 102.768 46.3626 102.176C45.6688 102.826 44.8873 103.483 44.0328 104.148C43.1783 104.812 42.3019 105.148 41.4181 105.148C40.7243 105.148 40.1984 104.871 39.8479 104.316C39.4973 103.761 39.322 103.096 39.322 102.322C39.322 101.614 39.4389 100.884 39.6799 100.139C39.9209 99.3939 40.308 98.6856 40.8411 98.0064C41.4108 97.2324 42.0389 96.5898 42.7182 96.0786C43.3974 95.5674 44.0693 95.1731 44.7412 94.8956C45.4058 94.6181 46.0412 94.4209 46.6401 94.3187C47.239 94.2092 47.7649 94.1581 48.2104 94.1581C48.9407 94.1581 49.4885 94.2895 49.8537 94.5524C50.2189 94.8153 50.4599 95.1804 50.5913 95.6404L51.5408 94.3917H53.6807L48.2177 102.088V102.096ZM41.2282 101.212C40.7243 102.14 40.4687 102.914 40.4687 103.534C40.4687 104.243 40.8338 104.601 41.5642 104.601C42.2288 104.601 43.0541 104.214 44.0328 103.439C45.0115 102.665 46.012 101.753 47.0272 100.701C47.3121 100.299 47.6115 99.8759 47.9329 99.4231C48.2469 98.9777 48.5683 98.5395 48.8823 98.1233C49.1964 97.707 49.4739 97.3273 49.7149 96.9841C49.9559 96.6409 50.1166 96.3999 50.2116 96.2392C50.2116 95.9325 50.102 95.5966 49.8756 95.2388C49.6565 94.881 49.2767 94.7057 48.7362 94.7057C48.0716 94.7057 47.2244 95.0051 46.1946 95.6112C45.1648 96.2173 44.0912 97.2105 42.9884 98.6052C42.3238 99.4085 41.7395 100.277 41.2282 101.205V101.212Z" fill="white"/>
<path d="M59.5747 94.9029C59.4506 94.9978 59.1877 95.2242 58.7933 95.5747C58.3989 95.9325 57.9461 96.3561 57.4421 96.8526C56.9382 97.3492 56.405 97.8458 55.85 98.335C55.2949 98.8316 54.8129 99.2624 54.4039 99.6349C54.2432 99.7298 54.1336 99.7736 54.0679 99.7736C53.9072 99.7736 53.8269 99.7152 53.8269 99.5911C53.8269 99.5326 53.8488 99.4669 53.8999 99.4085C53.9437 99.3501 54.0022 99.2844 54.0679 99.2259C54.7325 98.6052 55.4921 97.8823 56.3466 97.0425C57.2011 96.21 58.041 95.3922 58.8663 94.5816C59.6916 93.7783 60.4293 93.0408 61.0793 92.3762C61.7293 91.7117 62.1675 91.2225 62.3866 90.9158L68.7114 82.1528H70.7564L54.4039 104.878H52.3589L59.5821 94.9029H59.5747ZM69.6025 99.1237C69.6025 99.3063 69.4929 99.5107 69.2665 99.7298C68.9525 100.073 68.5142 100.54 67.9592 101.146C67.4041 101.753 66.7979 102.351 66.126 102.957C65.4541 103.564 64.7968 104.082 64.1321 104.513C63.4675 104.944 62.8613 105.163 62.3282 105.163C61.3422 105.163 60.8529 104.652 60.8529 103.629C60.8529 103.198 60.9478 102.746 61.1377 102.286C61.3276 101.826 61.6416 101.373 62.0872 100.942C62.5911 100.416 63.0293 99.9635 63.3945 99.5765C63.7597 99.1894 63.9423 98.8243 63.9423 98.4884C63.9423 98.2693 63.7962 98.021 63.5113 97.7435C63.3214 97.8093 63.1023 97.8604 62.8467 97.9042C62.5911 97.948 62.3428 97.9772 62.0872 97.9772C61.7366 97.9772 61.4225 97.9261 61.1377 97.8166C60.8529 97.707 60.7068 97.5464 60.7068 97.3273C60.7068 97.1739 60.7944 97.0279 60.9697 96.8891C61.145 96.7504 61.4079 96.6774 61.7512 96.6774C62.131 96.6774 62.4815 96.7212 62.7956 96.8161C63.1097 96.9111 63.3945 97.0352 63.6501 97.1886C64.3805 97.1886 64.9574 97.1009 65.3883 96.933C65.8192 96.765 66.3013 96.3707 66.8344 95.75C67.0901 95.3775 67.4114 95.0489 67.8058 94.7495C68.2002 94.4574 68.6384 94.3114 69.1131 94.3114C69.712 94.3114 70.0188 94.5597 70.0188 95.0562C70.0188 95.4579 69.8581 95.6623 69.544 95.6623C69.23 95.6623 69.0693 95.509 69.0693 95.195C69.0693 95.0708 69.135 94.9467 69.2592 94.8226C69.2592 94.7276 69.1935 94.6838 69.0693 94.6838C68.8794 94.6838 68.6019 94.7714 68.2367 94.9394C67.8715 95.1074 67.5137 95.4287 67.1704 95.8887C66.7249 96.5094 66.3013 96.9257 65.885 97.1374C65.476 97.3565 64.9209 97.5099 64.2198 97.6048C64.5338 97.7874 64.7968 97.9918 65.0013 98.2109C65.2058 98.43 65.308 98.7221 65.308 99.0945C65.308 99.3428 65.2423 99.6349 65.1181 99.9781C64.994 100.321 64.7529 100.708 64.4024 101.139C64.2125 101.417 63.9642 101.701 63.6647 102.001C63.3653 102.293 63.0658 102.57 62.7591 102.833C62.4596 103.096 62.204 103.345 61.9995 103.578C61.795 103.812 61.6928 103.987 61.6928 104.111C61.6928 104.265 61.7293 104.389 61.8096 104.484C61.89 104.579 62.0579 104.622 62.3063 104.622C62.7518 104.622 63.2776 104.403 63.8984 103.973C64.5192 103.542 65.1473 103.023 65.7973 102.417C66.4473 101.811 67.0462 101.205 67.6013 100.584C68.1564 99.9635 68.5946 99.4888 68.9086 99.1456C69.0036 98.9923 69.1277 98.9119 69.2884 98.9119C69.4783 98.9119 69.5733 98.9923 69.5733 99.1456L69.6025 99.1237Z" fill="white"/>
<path d="M69.982 101.052C69.7264 101.782 69.6022 102.454 69.6022 103.067C69.6022 103.498 69.6972 103.848 69.8871 104.111C70.077 104.374 70.4129 104.506 70.8876 104.506C71.4573 104.506 72.0781 104.308 72.7427 103.9C73.4074 103.498 74.0647 103.016 74.7147 102.461C75.3647 101.906 75.9563 101.329 76.4967 100.745C77.0372 100.161 77.4608 99.6787 77.7822 99.3063C77.8771 99.1821 77.9574 99.1237 78.0232 99.1237C78.1473 99.1237 78.2131 99.204 78.2131 99.3574C78.2131 99.4815 78.1839 99.5765 78.1181 99.6349C77.8333 100.007 77.4097 100.511 76.8619 101.139C76.3069 101.775 75.6861 102.395 75.0068 102.994C74.3276 103.6 73.6119 104.126 72.8669 104.571C72.1219 105.017 71.4208 105.243 70.7489 105.243C69.8579 105.243 69.1713 104.907 68.682 104.243C68.1927 103.578 67.9443 102.753 67.9443 101.76C67.9443 101.176 68.0466 100.54 68.2511 99.8613C68.4556 99.1821 68.7842 98.4884 69.2224 97.7728C69.668 97.0936 70.1719 96.5314 70.7416 96.0786C71.3113 95.6332 71.8809 95.2753 72.4506 95.0124C73.0203 94.7496 73.5461 94.567 74.0209 94.4575C74.4956 94.3479 74.8754 94.2968 75.1602 94.2968C76.5552 94.2968 77.249 94.7934 77.249 95.7792C77.249 96.2101 77.0737 96.619 76.7232 97.006C76.3726 97.393 75.8979 97.7363 75.299 98.0284C74.7001 98.3205 74.0136 98.5614 73.254 98.744C72.4944 98.9266 71.6983 99.0215 70.8803 99.0215C70.5298 99.6422 70.2303 100.314 69.9747 101.037L69.982 101.052ZM76.3507 95.1366C76.1608 94.954 75.8906 94.8591 75.54 94.8591C74.8096 94.8591 74.0793 95.1293 73.3562 95.6697C72.6259 96.21 71.8955 97.1448 71.1725 98.4738C71.9028 98.4738 72.5967 98.3935 73.2613 98.2401C73.9259 98.0868 74.5029 97.875 74.9995 97.6121C75.4889 97.3492 75.8832 97.0644 76.19 96.7577C76.4894 96.451 76.6428 96.137 76.6428 95.8303C76.6428 95.5528 76.5479 95.3192 76.358 95.1366H76.3507Z" fill="white"/>
<path d="M118.865 83.8178C118.331 84.4604 117.681 85.271 116.914 86.2568C116.148 87.2353 115.293 88.3526 114.344 89.6013C113.394 90.85 112.445 92.1499 111.503 93.4862C110.48 94.9029 109.487 96.3342 108.515 97.78C107.544 99.2259 106.653 100.526 105.835 101.687C105.017 102.848 104.294 103.797 103.666 104.527C103.031 105.265 102.556 105.63 102.242 105.63C102.118 105.63 102.037 105.564 101.986 105.44C101.935 105.309 101.913 105.141 101.913 104.936C101.913 104.469 102.03 103.819 102.256 102.987C102.49 102.147 102.804 101.219 103.206 100.204C103.607 99.1894 104.09 98.1087 104.667 96.9768C105.236 95.8449 105.85 94.7349 106.507 93.6542C108.406 90.6675 109.983 88.2139 111.247 86.3079C112.51 84.402 113.328 83.1606 113.686 82.5983C113.467 82.8539 113.029 83.3869 112.372 84.1829C111.714 84.9789 110.948 85.9209 110.071 87.0089C109.195 88.0897 108.267 89.2508 107.281 90.4922C106.295 91.7263 105.368 92.902 104.491 94.012C103.301 95.5309 102.161 96.9987 101.08 98.4008C99.9996 99.8028 98.9186 101.044 97.8377 102.11C96.7568 103.184 95.6394 104.038 94.4854 104.681C93.3315 105.323 92.0826 105.645 90.746 105.645C89.8185 105.645 89.037 105.55 88.3943 105.353C87.7516 105.163 87.2257 104.9 86.824 104.579C86.4223 104.257 86.1229 103.892 85.933 103.498C85.7358 103.096 85.6409 102.702 85.6409 102.315C85.6409 101.774 85.765 101.344 86.006 101.022C86.2471 100.701 86.5684 100.54 86.9555 100.54C87.2988 100.54 87.5617 100.657 87.7589 100.891C87.9561 101.125 88.051 101.38 88.051 101.665C88.051 102.001 87.9561 102.271 87.7589 102.476C87.5617 102.68 87.2988 102.782 86.9555 102.782C86.7145 102.782 86.5319 102.731 86.4077 102.629C86.2836 102.527 86.1667 102.373 86.0426 102.162C86.0426 102.936 86.437 103.637 87.2257 104.272C88.0145 104.907 89.3072 105.221 91.1112 105.221C92.3017 105.221 93.4848 104.842 94.668 104.082C95.8439 103.323 96.9905 102.359 98.0933 101.198C99.1962 100.036 100.277 98.7805 101.321 97.4295C102.366 96.0786 103.366 94.7933 104.309 93.5811C105.477 92.1133 106.609 90.6967 107.697 89.3311C108.793 87.9656 109.779 86.7388 110.67 85.658C111.554 84.5772 112.313 83.6717 112.934 82.9488C113.555 82.2258 113.964 81.7512 114.154 81.5175C114.57 81.0502 114.833 80.8238 114.957 80.8238C115.008 80.8238 115.03 80.853 115.03 80.9041C115.03 81.0575 114.906 81.3861 114.665 81.8899C114.424 82.3938 114.11 83.0072 113.737 83.7302C113.358 84.4531 112.919 85.2564 112.423 86.1473C111.926 87.0382 111.422 87.9364 110.911 88.8346C110.4 89.7401 109.903 90.6237 109.414 91.4999C108.924 92.3762 108.501 93.1649 108.136 93.8586C107.624 94.8372 107.04 95.9033 106.383 97.0498C105.726 98.1963 105.105 99.2989 104.52 100.358C103.936 101.417 103.447 102.344 103.045 103.14C102.643 103.936 102.446 104.469 102.446 104.725C102.446 104.856 102.483 104.915 102.556 104.915C102.724 104.915 103.118 104.528 103.724 103.753C104.331 102.979 105.054 102.001 105.893 100.818C106.733 99.6349 107.624 98.3496 108.574 96.9695C109.523 95.5893 110.422 94.2968 111.269 93.0846C112.24 91.6898 113.226 90.3608 114.219 89.0828C115.213 87.8049 116.133 86.6438 116.973 85.5996C117.813 84.5553 118.529 83.679 119.127 82.9707C119.719 82.2624 120.121 81.7804 120.311 81.5175C120.698 81.0282 120.946 80.78 121.041 80.78C121.063 80.78 121.077 80.8092 121.077 80.8603C121.077 81.0136 120.968 81.3569 120.749 81.8826C120.53 82.4084 120.238 83.051 119.872 83.7959C119.507 84.5407 119.106 85.3586 118.667 86.2495C118.229 87.1404 117.776 88.0386 117.316 88.9587C116.856 89.8715 116.418 90.7551 116.002 91.6095C115.585 92.4566 115.235 93.2087 114.943 93.8513C114.577 94.6473 114.146 95.5163 113.65 96.4437C113.153 97.3711 112.678 98.2912 112.226 99.2113C111.773 100.124 111.393 100.986 111.079 101.782C110.765 102.578 110.604 103.25 110.604 103.79C110.604 104.513 111.028 104.871 111.882 104.871C112.321 104.871 112.795 104.703 113.307 104.367C113.818 104.031 114.322 103.629 114.818 103.169C115.315 102.702 115.782 102.22 116.221 101.716C116.659 101.212 117.009 100.811 117.28 100.497C117.375 100.343 117.484 100.263 117.608 100.263C117.732 100.263 117.791 100.343 117.791 100.497C117.791 100.577 117.754 100.65 117.681 100.73C117.462 101.015 117.141 101.417 116.717 101.95C116.294 102.476 115.797 103.009 115.242 103.534C114.68 104.06 114.081 104.528 113.438 104.929C112.795 105.331 112.131 105.528 111.451 105.528C110.845 105.528 110.414 105.338 110.159 104.951C109.903 104.564 109.779 104.06 109.779 103.439C109.779 102.819 109.889 102.059 110.108 101.234C110.327 100.409 110.597 99.5618 110.926 98.6782C111.254 97.802 111.619 96.9476 112.021 96.1078C112.423 95.268 112.817 94.5159 113.204 93.844C114.03 92.3762 114.818 91.018 115.578 89.762C116.33 88.5132 117.002 87.4033 117.586 86.4394C118.171 85.4754 118.66 84.6576 119.062 84.0003C119.463 83.3431 119.734 82.8758 119.88 82.591C119.734 82.7735 119.39 83.1825 118.857 83.8251L118.865 83.8178Z" fill="white"/>
<path d="M126.438 98.963C126.19 99.591 125.971 100.058 125.774 100.372C126.037 100.372 126.446 100.307 127.008 100.183C127.57 100.051 128.045 99.8174 128.439 99.4742C128.534 99.3866 128.637 99.3428 128.739 99.3428C128.87 99.3428 128.936 99.4158 128.936 99.5545C128.936 99.6422 128.885 99.7371 128.79 99.8539C128.396 100.256 127.87 100.54 127.212 100.708C126.555 100.876 125.927 100.964 125.335 100.964C125.167 101.249 124.897 101.614 124.525 102.052C124.145 102.497 123.685 102.928 123.144 103.359C122.604 103.79 121.983 104.148 121.297 104.447C120.603 104.747 119.865 104.9 119.076 104.9C118.222 104.9 117.616 104.615 117.25 104.046C116.885 103.476 116.71 102.819 116.71 102.081C116.71 101.512 116.798 100.942 116.98 100.372C117.163 99.8028 117.396 99.3209 117.696 98.9192C118.025 98.4884 118.419 98.0356 118.879 97.5537C119.339 97.0717 119.858 96.6336 120.435 96.2465C121.012 95.8595 121.654 95.5382 122.356 95.2826C123.064 95.027 123.86 94.8956 124.751 94.8956C125.54 94.8956 126.08 95.1 126.38 95.5163C126.679 95.9325 126.825 96.4218 126.825 96.9914C126.825 97.6778 126.701 98.335 126.453 98.9557L126.438 98.963ZM119.456 104.44C119.953 104.44 120.457 104.323 120.983 104.097C121.508 103.87 122.02 103.585 122.509 103.242C123.006 102.899 123.444 102.519 123.838 102.11C124.233 101.694 124.532 101.307 124.729 100.935C124.663 100.905 124.583 100.869 124.481 100.825C124.379 100.781 124.335 100.701 124.335 100.591C124.335 100.394 124.495 100.292 124.831 100.292C124.963 100.292 125.08 100.307 125.175 100.336C125.474 99.8831 125.722 99.3428 125.942 98.7293C126.153 98.1159 126.263 97.5245 126.263 96.9549C126.263 96.5021 126.153 96.1297 125.942 95.8449C125.73 95.5601 125.357 95.414 124.831 95.414C124.138 95.414 123.407 95.7207 122.633 96.3342C121.859 96.9476 121.136 97.6778 120.464 98.5176C119.792 99.3574 119.23 100.226 118.784 101.125C118.339 102.023 118.12 102.76 118.12 103.33C118.12 104.075 118.565 104.44 119.449 104.44H119.456Z" fill="white"/>
<path d="M142.25 97.8531C142.579 97.5683 142.959 97.247 143.382 96.8892C143.806 96.5313 144.251 96.21 144.712 95.9252C145.172 95.6405 145.639 95.3995 146.121 95.195C146.596 94.9978 147.063 94.8956 147.531 94.8956C147.998 94.8956 148.327 95.0197 148.539 95.2607C148.75 95.5017 148.86 95.823 148.86 96.2246C148.86 96.7066 148.721 97.2251 148.444 97.7655C148.166 98.3058 147.794 98.817 147.334 99.3063C145.194 101.387 144.127 102.826 144.127 103.629C144.127 104.082 144.492 104.316 145.215 104.316C145.639 104.316 146.136 104.148 146.698 103.805C147.26 103.461 147.852 103.045 148.473 102.541C149.094 102.045 149.707 101.512 150.299 100.935C150.89 100.365 151.416 99.8686 151.876 99.4377C152.044 99.299 152.205 99.226 152.373 99.226C152.504 99.226 152.57 99.299 152.57 99.4377C152.57 99.5253 152.49 99.6641 152.322 99.8686C151.825 100.351 151.263 100.891 150.62 101.475C149.977 102.059 149.327 102.607 148.67 103.118C148.013 103.629 147.363 104.067 146.72 104.425C146.077 104.783 145.515 104.958 145.018 104.958C144.522 104.958 144.062 104.798 143.638 104.491C143.207 104.177 142.995 103.695 142.995 103.038C142.995 102.636 143.083 102.191 143.265 101.687C143.448 101.19 143.747 100.628 144.178 100C144.441 99.6276 144.785 99.226 145.215 98.7805C145.639 98.3424 146.055 97.9188 146.45 97.5172C146.844 97.1155 147.187 96.765 147.487 96.451C147.786 96.137 147.932 95.896 147.932 95.7208C147.932 95.436 147.75 95.2899 147.392 95.2899C147.034 95.2899 146.589 95.4287 146.063 95.6989C145.537 95.9691 144.967 96.3196 144.361 96.7504C143.755 97.1813 143.141 97.6705 142.535 98.2255C141.929 98.7805 141.374 99.3428 140.885 99.9124L136.889 104.703H134.421L140.687 97.174C140.848 96.9768 141.016 96.7358 141.184 96.4437C141.352 96.1589 141.432 95.9033 141.432 95.677C141.432 95.4214 141.235 95.2899 140.841 95.2899C140.476 95.2899 140.03 95.4433 139.482 95.7427C138.942 96.0421 138.365 96.4145 137.759 96.8527C137.152 97.2981 136.568 97.7728 136.006 98.2839C135.443 98.7951 135.005 99.2698 134.677 99.6933L130.579 104.695H128.111L134.275 97.1667C134.472 96.9403 134.677 96.6774 134.888 96.378C135.1 96.0786 135.21 95.8303 135.21 95.6332C135.21 95.5163 135.129 95.4652 134.961 95.4652C134.596 95.4652 134.121 95.6258 133.53 95.9325C132.938 96.2465 132.325 96.6336 131.682 97.0863C131.039 97.5391 130.404 98.021 129.783 98.5176C129.155 99.0142 128.615 99.4523 128.154 99.8247C128.089 99.8832 128.008 99.9124 127.906 99.9124C127.775 99.9124 127.709 99.854 127.709 99.7444C127.709 99.6349 127.746 99.5326 127.804 99.445C128.228 99.0434 128.783 98.5833 129.455 98.0576C130.126 97.5318 130.82 97.0279 131.529 96.5606C132.237 96.0932 132.909 95.6916 133.552 95.363C134.194 95.0343 134.713 94.8737 135.107 94.8737C135.67 94.8737 136.05 94.9832 136.269 95.195C136.48 95.4068 136.59 95.6697 136.59 95.9837C136.59 96.2977 136.517 96.619 136.371 96.9476C136.225 97.2762 136.05 97.5829 135.852 97.8677C136.218 97.5537 136.619 97.2178 137.057 96.86C137.503 96.5021 137.948 96.1735 138.387 95.8741C138.832 95.5747 139.278 95.3337 139.716 95.1439C140.161 94.9613 140.578 94.8664 140.972 94.8664C141.629 94.8664 142.09 95.0124 142.353 95.2972C142.615 95.582 142.747 95.9252 142.747 96.3269C142.747 96.8673 142.579 97.3857 142.25 97.8677V97.8531Z" fill="white"/>
<path d="M152.957 101.168C152.694 101.84 152.563 102.461 152.563 103.031C152.563 103.432 152.665 103.753 152.862 103.994C153.06 104.235 153.403 104.36 153.899 104.36C154.491 104.36 155.134 104.177 155.82 103.805C156.514 103.432 157.193 102.994 157.865 102.476C158.537 101.964 159.158 101.439 159.713 100.891C160.275 100.351 160.714 99.9051 161.042 99.5618C161.145 99.445 161.225 99.3939 161.291 99.3939C161.422 99.3939 161.488 99.4669 161.488 99.6057C161.488 99.7225 161.451 99.8028 161.386 99.8612C161.086 100.204 160.655 100.665 160.078 101.249C159.501 101.833 158.859 102.402 158.157 102.957C157.449 103.512 156.711 104.002 155.937 104.411C155.163 104.827 154.433 105.031 153.739 105.031C152.819 105.031 152.103 104.725 151.592 104.111C151.08 103.498 150.825 102.738 150.825 101.826C150.825 101.285 150.934 100.701 151.146 100.073C151.358 99.445 151.694 98.8024 152.161 98.1452C152.621 97.5172 153.147 96.9987 153.739 96.5824C154.33 96.1662 154.922 95.8376 155.514 95.5966C156.105 95.3556 156.646 95.1804 157.142 95.0855C157.639 94.9832 158.033 94.9321 158.325 94.9321C159.772 94.9321 160.495 95.3848 160.495 96.2977C160.495 96.6993 160.312 97.0717 159.954 97.4295C159.589 97.7874 159.1 98.1014 158.471 98.3716C157.843 98.6417 157.142 98.8608 156.353 99.0361C155.565 99.2113 154.739 99.2917 153.885 99.2917C153.52 99.8612 153.213 100.482 152.95 101.154L152.957 101.168ZM159.567 95.7135C159.37 95.5455 159.092 95.4579 158.727 95.4579C157.968 95.4579 157.215 95.7062 156.456 96.2027C155.696 96.6993 154.944 97.5683 154.184 98.7878C154.944 98.7878 155.667 98.7148 156.353 98.576C157.047 98.43 157.646 98.2401 158.157 97.9991C158.669 97.7581 159.078 97.4953 159.392 97.2105C159.706 96.9257 159.859 96.6409 159.859 96.3561C159.859 96.1005 159.757 95.8887 159.56 95.7135H159.567Z" fill="white"/>
<path d="M174.787 97.7874C174.473 98.3716 173.991 98.9631 173.334 99.5619C172.509 100.358 171.822 101.103 171.26 101.789C170.697 102.476 170.42 103.104 170.42 103.673C170.42 104.126 170.734 104.36 171.355 104.36C171.815 104.36 172.363 104.162 173.005 103.761C173.648 103.359 174.291 102.892 174.926 102.351C175.569 101.811 176.175 101.263 176.752 100.701C177.329 100.146 177.796 99.7079 178.162 99.3939C178.264 99.3063 178.359 99.2624 178.461 99.2624C178.658 99.2624 178.761 99.3355 178.761 99.4742C178.761 99.5911 178.695 99.7006 178.563 99.8174C178.198 100.131 177.716 100.584 177.11 101.168C176.504 101.753 175.854 102.322 175.16 102.877C174.466 103.432 173.772 103.921 173.064 104.33C172.355 104.747 171.72 104.951 171.165 104.951C170.508 104.951 169.996 104.805 169.638 104.52C169.273 104.235 169.098 103.753 169.098 103.067C169.098 102.468 169.237 101.877 169.514 101.293C169.792 100.708 170.413 99.9197 171.362 98.9192C171.983 98.262 172.604 97.6851 173.21 97.1886C173.816 96.692 174.123 96.2685 174.123 95.9252C174.123 95.6989 174.079 95.5528 173.999 95.4944C173.918 95.436 173.78 95.4068 173.582 95.4068C173.188 95.4068 172.713 95.5528 172.151 95.8376C171.588 96.1224 171.004 96.4875 170.398 96.9257C169.792 97.3711 169.2 97.8531 168.623 98.3789C168.046 98.9046 167.564 99.4158 167.17 99.8978L163.321 104.688H160.757L166.973 97.1594C167.141 96.9622 167.316 96.7285 167.513 96.451C167.71 96.1808 167.813 95.9471 167.813 95.7427C167.813 95.5747 167.696 95.4871 167.469 95.4871C167.075 95.4871 166.549 95.6843 165.892 96.0859C165.234 96.4875 164.563 96.9403 163.869 97.4514C163.175 97.9626 162.547 98.4665 161.97 98.9484C161.393 99.4304 161.006 99.759 160.809 99.9343C160.677 99.9927 160.597 100.022 160.56 100.022C160.363 100.022 160.261 99.9489 160.261 99.8101C160.261 99.7517 160.326 99.6714 160.458 99.5546C160.626 99.4377 160.991 99.1237 161.568 98.6125C162.145 98.1014 162.81 97.561 163.569 97.006C164.329 96.451 165.096 95.9544 165.892 95.509C166.681 95.0708 167.374 94.8445 167.966 94.8445C168.426 94.8445 168.74 94.954 168.901 95.1658C169.061 95.3776 169.149 95.6404 169.149 95.9544C169.149 96.2685 169.105 96.5752 169.025 96.8746C168.945 97.174 168.835 97.4515 168.704 97.707C169.032 97.4222 169.405 97.1155 169.814 96.7869C170.223 96.4583 170.654 96.1516 171.099 95.8668C171.545 95.582 171.997 95.3483 172.458 95.1585C172.918 94.9759 173.378 94.881 173.838 94.881C174.795 94.881 175.269 95.3264 175.269 96.21C175.269 96.6628 175.116 97.1886 174.802 97.7728L174.787 97.7874Z" fill="white"/>
<path d="M182.653 92.7195C182.288 92.7195 182.113 92.6464 182.113 92.5077C182.113 92.3105 182.325 92.2083 182.756 92.2083H185.319L189.657 86.9505H191.775L187.583 92.2083H190.198C190.527 92.2083 190.695 92.2959 190.695 92.4639C190.695 92.6318 190.512 92.7195 190.154 92.7195H187.145L181.572 99.7371C181.31 100.08 181.032 100.438 180.733 100.803C180.433 101.176 180.163 101.534 179.922 101.869C179.674 102.213 179.469 102.534 179.308 102.833C179.14 103.133 179.06 103.381 179.06 103.578C179.06 104.031 179.323 104.265 179.849 104.265C180.178 104.265 180.623 104.097 181.178 103.753C181.74 103.41 182.317 103.001 182.931 102.512C183.537 102.03 184.136 101.504 184.735 100.949C185.334 100.394 185.852 99.8978 186.312 99.4742C186.415 99.3866 186.524 99.3428 186.656 99.3428C186.787 99.3428 186.853 99.4304 186.853 99.5984C186.853 99.7152 186.787 99.8393 186.656 99.9854C186.028 100.584 185.429 101.154 184.852 101.694C184.275 102.235 183.705 102.738 183.15 103.191C182.456 103.702 181.806 104.119 181.2 104.433C180.594 104.747 180.01 104.9 179.447 104.9C178.79 104.9 178.322 104.754 178.038 104.469C177.76 104.184 177.621 103.812 177.621 103.359C177.621 102.906 177.724 102.424 177.921 101.928C178.118 101.431 178.395 100.92 178.761 100.409C178.958 100.095 179.206 99.7444 179.498 99.3574C179.798 98.9703 180.104 98.5833 180.433 98.1817C180.762 97.78 181.09 97.393 181.419 97.006C181.748 96.619 182.04 96.2831 182.31 95.9983C181.682 96.5678 181.01 97.1666 180.287 97.7947C179.564 98.4227 178.724 99.1237 177.767 99.8904C177.672 99.9781 177.556 100.022 177.424 100.022C177.263 100.022 177.176 99.9635 177.176 99.8539C177.176 99.7955 177.212 99.7298 177.278 99.6641C177.344 99.591 177.409 99.5253 177.475 99.4742C177.935 99.1018 178.527 98.5979 179.25 97.9553C179.973 97.3127 180.696 96.6774 181.419 96.0494C182.142 95.4214 182.785 94.8518 183.34 94.3406C183.902 93.8294 184.246 93.5008 184.377 93.3548L184.874 92.7122H182.653V92.7195Z" fill="white"/>
</svg>
